<?xml version="1.0" encoding="UTF-8"?><svg id="_圖層_2" xmlns="http://www.w3.org/2000/svg" viewBox="0 0 285 170"><defs><style>.cls-1{fill:none;}.cls-2{fill:#434659;}</style></defs><g id="_按鈕"><rect class="cls-1" width="285" height="170"/><path class="cls-2" d="m245.25,78.87c-1.31-6.68-5.04-11.6-11.18-14.63-4.39-2.17-9.1-2.89-14.04-2.99-3.88.07-7.77.59-11.5,2.02-6.38,2.43-10.93,6.69-13.07,13.26-1.48,4.54-1.44,9.16-.43,13.77,1.64,7.46,5.79,13.05,12.95,15.96,8.03,3.27,16.24,3.24,24.35.23,5.75-2.13,9.63-6.3,11.7-12.06,1.82-5.06,2.26-10.29,1.22-15.58Zm-13.68,15.04c-1.38,4.47-4.65,6.98-9.24,7.77-5.64.97-11.53-2.25-13.57-7.56-.28-.74-.52-1.5-.72-2.27-.6-2.3-.84-4.67-.89-7.07.02-2.58.4-5.09,1.12-7.53.24-.81.52-1.62.83-2.42.9-2.28,2.57-3.87,4.75-4.88,4.14-1.92,8.35-1.91,12.53-.1,3.55,1.53,5.23,4.4,5.99,8.1,1.11,5.41.82,10.74-.8,15.95Z"/><path class="cls-2" d="m129.42,64.65c-9.21-4.41-18.67-4.42-27.99-.3-5.51,2.43-9.22,6.69-11.05,12.47-1.26,3.97-1.33,8.04-.67,12.11,1.26,7.74,5.15,13.64,12.33,17.14,4.16,2.03,8.62,2.72,13.37,2.69,2.73.04,5.58-.22,8.37-.92,7.15-1.8,12.37-5.9,15.06-12.87,1.77-4.58,2.23-9.36,1.63-14.21-.9-7.25-4.39-12.91-11.05-16.09Zm-2.87,29.47c-1.41,4.61-5.47,7.57-10.56,7.83-5.46.28-10.69-2.97-12.32-7.88-1.75-5.27-2.1-10.65-.6-16.07,1.83-6.62,6.47-9.85,13.35-9.24,2.11.19,4.13.7,5.99,1.78,2.29,1.33,3.83,3.21,4.5,5.82.17.67.33,1.34.46,2.01.2.95.34,1.91.45,2.88.13,1.08.22,2.16.23,3.25-.03,3.28-.53,6.5-1.49,9.63Z"/><path class="cls-2" d="m39.2,80.42h6.16c-.06-8.21,4.18-11.04,11.62-10.65v31.68h-8.79v5.99h29.31v-6.06h-8.8v-31.66c1.29.06,2.48.09,3.66.17,4.63.35,7.22,2.79,7.82,7.36.14,1.05.17,2.12.25,3.18h6.22v-16.66h-47.44v16.64Z"/><path class="cls-2" d="m144.21,80.28h6.23c.07-3.14.31-6.22,2.85-8.45,2.51-2.19,5.61-2.3,8.71-2.29v31.77h-8.73v5.99h29.23v-6.09h-8.78v-31.64c1.32.06,2.56.07,3.79.18,4.48.4,6.89,2.63,7.63,7.06.19,1.13.22,2.29.33,3.47h6.19v-16.66h-47.47v16.66Z"/></g></svg>