<?xml version="1.0" encoding="UTF-8"?><svg id="_圖層_2" xmlns="http://www.w3.org/2000/svg" viewBox="0 0 285 170"><defs><style>.cls-1{fill:none;}.cls-2{fill:#434659;}</style></defs><g id="_按鈕"><rect class="cls-1" width="285" height="170"/><path class="cls-2" d="m162.72,75.31h-18.22c-6.29,0-11.52-2.19-15.65-6.55-4.17-4.39-6.24-9.93-6.24-16.54s2.07-12.03,6.14-16.11c4.08-4.09,9.36-6.17,15.75-6.17h25.47l-7.25,11.77h-18.22c-3.06,0-5.63,1.07-7.65,3.08-2.01,2.09-3.02,4.78-3.02,7.99s1.01,5.8,3.02,7.8c2.02,2.02,4.59,3.03,7.65,3.03h25.47l-7.25,11.7Z"/><path class="cls-2" d="m207.52,75.31v-16.92h-21.6v16.92h-11.27V29.94h11.27v16.67h21.6v-16.67h11.22v45.37h-11.22Z"/><path class="cls-2" d="m248.33,31.9c-1.19.93-2.17,2.05-2.92,3.36,0,0-19.57,33.93-22.77,39.49h12.65c.32-.54,16.2-27.77,16.2-27.77.1-.17.28-.29.48-.29h0c.21,0,.39.12.49.29l9.41,16.29c.05.09.07.18.07.28s-.02.2-.07.29c-.1.17-.29.28-.49.28h-14.82c-.29.5-5.33,9.21-6.14,10.63h40.68c-.91-1.61-22.22-39.5-22.22-39.5-.74-1.34-1.71-2.47-2.87-3.35-1.34-1-2.63-1.52-3.84-1.52-1.19,0-2.44.5-3.84,1.52Z"/><path class="cls-2" d="m131.13,91.32l1.24.26c-.26.87-.73,1.54-1.41,1.99-.68.46-1.51.69-2.5.69s-1.84-.18-2.48-.53c-.63-.36-1.12-.86-1.45-1.53-.34-.67-.5-1.38-.5-2.15,0-.83.18-1.56.56-2.18.37-.62.91-1.09,1.6-1.42.69-.32,1.45-.48,2.29-.48.94,0,1.73.2,2.38.6.65.41,1.09.98,1.35,1.73l-1.23.24c-.21-.58-.54-1.01-.95-1.28-.42-.26-.94-.4-1.57-.4-.72,0-1.33.15-1.81.44-.49.3-.83.69-1.03,1.19-.19.5-.3,1.01-.3,1.54,0,.68.12,1.28.35,1.79.24.51.6.89,1.09,1.13.5.26,1.03.39,1.61.39.69,0,1.28-.18,1.77-.52.49-.34.81-.85.99-1.52Z"/><path class="cls-2" d="m134.21,94.12v-8.01h1.25v3.29h4.9v-3.29h1.25v8.01h-1.25v-3.78h-4.9v3.78h-1.25Z"/><path class="cls-2" d="m143.97,94.12v-8.01h6.81v.94h-5.57v2.46h5.22v.93h-5.22v2.73h5.8v.95h-7.04Z"/><path class="cls-2" d="m152.98,94.12v-8.01h1.28l4.95,6.29v-6.29h1.2v8.01h-1.28l-4.95-6.3v6.3h-1.2Z"/><path class="cls-2" d="m167.18,90.98v-.94h3.99s0,2.96,0,2.96c-.61.42-1.25.73-1.9.94-.65.21-1.32.32-2,.32-.93,0-1.77-.17-2.52-.51-.76-.33-1.33-.83-1.71-1.47-.39-.63-.58-1.35-.58-2.13s.19-1.51.58-2.19c.38-.67.93-1.18,1.65-1.51.72-.32,1.55-.48,2.49-.48.69,0,1.3.08,1.85.27.55.19.98.45,1.3.78.31.34.55.78.71,1.31l-1.13.26c-.14-.41-.31-.73-.52-.96-.21-.23-.51-.42-.9-.56-.4-.14-.82-.21-1.3-.21-.57,0-1.06.07-1.48.23-.42.14-.75.34-1.01.57-.26.24-.46.5-.59.8-.24.5-.36,1.04-.36,1.61,0,.72.15,1.32.44,1.79.29.48.71.84,1.26,1.08.55.23,1.14.35,1.76.35.54,0,1.07-.09,1.58-.27.51-.18.9-.36,1.17-.56v-1.5h-2.77Z"/><path class="cls-2" d="m177.24,94.12v-8.01h1.25v3.29h4.9v-3.29h1.24v8.01h-1.24v-3.78h-4.9v3.78h-1.25Z"/><path class="cls-2" d="m186.55,91.55l1.17-.08c.06.4.19.73.4.98.2.26.52.47.94.62.44.16.92.24,1.45.24.48,0,.9-.06,1.26-.18.36-.13.64-.29.82-.5.17-.21.26-.43.26-.69s-.09-.47-.25-.65c-.17-.18-.46-.34-.85-.47-.25-.09-.81-.22-1.68-.39-.87-.17-1.48-.34-1.82-.5-.46-.2-.79-.45-1.01-.75-.22-.3-.34-.62-.34-1,0-.4.14-.78.41-1.13.27-.35.67-.62,1.19-.8.52-.18,1.09-.27,1.73-.27.7,0,1.32.09,1.85.28.53.2.94.48,1.23.85.29.36.44.79.47,1.26l-1.2.07c-.06-.51-.28-.89-.66-1.14-.37-.26-.91-.39-1.64-.39s-1.3.12-1.65.36c-.35.23-.52.51-.52.84,0,.29.12.53.36.71.24.18.87.37,1.88.57,1.01.2,1.71.37,2.09.51.55.22.95.49,1.21.82.26.33.4.71.4,1.14s-.15.83-.43,1.2c-.29.38-.7.67-1.24.88-.54.21-1.15.32-1.82.32-.86,0-1.57-.11-2.15-.33-.58-.21-1.03-.53-1.35-.95-.33-.43-.5-.91-.52-1.45Z"/><path class="cls-2" d="m196.23,94.12v-8.01h1.25v8.01h-1.25Z"/><path class="cls-2" d="m199.93,94.12v-8.01h1.28l4.95,6.29v-6.29h1.2v8.01h-1.28l-4.95-6.3v6.3h-1.19Z"/><path class="cls-2" d="m211.88,94.12l3.62-8.01h1.35l3.86,8.01h-1.43l-1.1-2.43h-3.94l-1.04,2.43h-1.32Zm2.72-3.29h3.19l-.98-2.22c-.3-.67-.52-1.23-.67-1.66-.12.52-.3,1.02-.51,1.53l-1.04,2.35Z"/><path class="cls-2" d="m221.91,94.12v-8.01h1.25v7.06h4.64v.95h-5.89Z"/><path class="cls-2" d="m235.74,86.11h1.25v4.63c0,.8-.11,1.44-.32,1.92-.21.47-.6.86-1.16,1.16-.56.3-1.29.45-2.2.45s-1.61-.13-2.17-.39c-.56-.26-.96-.63-1.2-1.12-.24-.48-.36-1.16-.36-2.01v-4.63h1.25v4.62c0,.69.08,1.21.23,1.54.15.33.42.59.79.77.37.18.82.27,1.36.27.91,0,1.57-.17,1.96-.54.39-.34.58-1.03.58-2.04v-4.62h0Z"/><path class="cls-2" d="m239.28,94.12v-8.01h1.88l2.24,5.67c.2.53.35.93.45,1.19.11-.29.27-.72.5-1.28l2.26-5.57h1.68v8.01h-1.2v-6.71l-2.74,6.71h-1.12l-2.73-6.82v6.82h-1.2Z"/><path class="cls-2" d="m250.77,94.12v-8.01h1.24v8.01h-1.24Z"/><path class="cls-2" d="m254.47,94.12v-8.01h1.28l4.96,6.29v-6.29h1.19v8.01h-1.27l-4.96-6.3v6.3h-1.2Z"/><path class="cls-2" d="m270.44,86.11h1.25v4.63c0,.8-.11,1.44-.32,1.92-.22.47-.6.86-1.16,1.16-.56.3-1.3.45-2.2.45s-1.6-.13-2.17-.39c-.56-.26-.96-.63-1.2-1.12-.24-.48-.36-1.16-.36-2.01v-4.63h1.24v4.62c0,.69.07,1.21.23,1.54.15.33.42.59.78.77.37.18.83.27,1.36.27.92,0,1.57-.17,1.96-.54.39-.34.58-1.03.58-2.04v-4.62h0Z"/><path class="cls-2" d="m273.99,94.12v-8.01h1.87l2.24,5.67c.2.53.35.93.44,1.19.11-.29.28-.72.51-1.28l2.26-5.57h1.68v8.01h-1.2v-6.71l-2.74,6.71h-1.13l-2.72-6.82v6.82h-1.2Z"/><path class="cls-2" d="m77.68,29c9.77,4.54,16.4,12.38,16.98,21.67.86,13.87-12.11,26.26-30,29.73,8.01-31.55,3.75-53.2,3.75-53.2,0,0-4.5-1.29-12.97-1.82,5.1,23.54-1.53,47.66-5.22,58.59-.94,2.7-2.47,6.68-4.4,11.49,2.69.28,5.45.44,8.26.44,28.75,0,52.05-15.82,52.05-35.35,0-13.76-11.56-25.69-28.45-31.54Z"/><path class="cls-2" d="m17.72,55.48c-.92-14.73,13.73-27.76,33.29-30.26C23.69,26.3,2.01,41.68,2.01,60.53c0,16.12,15.89,29.73,37.62,33.97,1.42-3.34,4.35-10.38,5.24-14.08-15.11-2.98-26.39-12.73-27.16-24.94Z"/><polygon class="cls-2" points="73.4 48.74 73.4 64.59 89.56 56.53 73.4 48.74"/><path class="cls-2" d="m75.08,115.79h2.65v-3.34h-7.06v-2.74h-4.64v2.74h-7.79v3.34h2.74l.87,6.56h-3.56v3.18h7.45v2.44h-7.46v3.2h1.65l.04,9.01c.01.29.04.68-.22.83-.24.15-1.14.14-1.28.12l-.2-.03v3.32s3.32.04,3.32.04h.26c.51.01.95.02,1.64-.71.59-.63.56-1.56.54-2.24l-.02-.32v-10.01h1.76c0,.65,0,.3-.03,13.25h4.49s0-12.95,0-13.25h1.74v10.01l-.02.32c-.02.68-.04,1.6.53,2.24.7.73,1.14.72,1.64.71h.24s3.33-.04,3.33-.04v-3.33s-.19.04-.19.04c-.13.02-1.04.03-1.27-.12-.26-.15-.24-.54-.23-.73,0-.1.04-8.4.04-8.4v-.7h1.69v-3.2h-7.5v-2.44h7.5v-3.18h-3.76l1.11-6.55Zm-4.92,6.55h-4.53l-.88-6.56h6.53l-1.12,6.56Zm13.74-6.41v-.06c0-.14.07-.27.39-.31,3.99-.21,6.93-.62,10.31-1.22l.21-.05-.59-3.45-.14.02c-4.3.79-9.04,1.24-13.28,1.33h0l-.72.29c-.18.22-.27.56-.24,1.01v20.98c.02,5.63-1.29,9.88-1.29,9.88h3.61s1.73-4.5,1.73-9.88,0-10.49,0-10.83h4.5v10.98h0v9.77h4.25v-9.77h0v-10.98h3.18v-3.48h-11.92c0-.32,0-4.24,0-4.24Zm-48.8,12.17h13.79v-3.47h-13.79v-9.8h14.93v-3.47H13.72v3.47h16.59v24.79h-7.69v-19.84h-4.81v19.84h-4.87v3.49h37.73v-3.49h-15.56v-11.52Z"/><path class="cls-2" d="m175.29,124.19c3.09,0,5.08-1.99,5.08-5.1v-7.09c0-.18-.07-.59-.7-.59h-24.98c-.41,0-.65.2-.65.59v11.56c0,.41.23.64.65.64h20.6Zm-16.61-3.46h0v-5.87l16.99.02.04,3.66c0,1.88-1.38,2.15-2.72,2.2-.35.02-14.18,0-14.32,0Z"/><path class="cls-2" d="m160.01,144.38c3.09,0,5.09-2,5.09-5.09v-11.72c0-.18-.08-.59-.7-.59h-14.76c-.41,0-.65.2-.65.59v16.19c0,.41.24.63.65.63h10.37Zm-6.38-3.46h0v-10.5l6.78.02.03,8.28c0,1.88-1.38,2.15-2.71,2.2-.35.03-3.97,0-4.1,0Z"/><path class="cls-2" d="m179.58,144.38c3.1,0,5.09-2,5.09-5.09v-11.72c0-.18-.08-.59-.7-.59h-14.76c-.41,0-.65.2-.65.59v16.19c0,.41.24.63.65.63h10.36Zm-6.38-3.46h0v-10.5l6.78.02.04,8.28c0,1.88-1.38,2.15-2.72,2.2-.34.03-3.97,0-4.1,0Z"/><path class="cls-2" d="m132.12,109.77h-3.9v2.66h-8.22v3.17h8.22v1.57h-7.42v2.87h7.42v1.71h-8.72v3.18h22.11v-3.18h-9.39v-1.71h7.75v-2.87h-7.75v-1.57h8.38v-3.17h-8.38v-2.66h-.11Zm-18.75.42h-3.73v12.59h-6.45v3.33h6.13c-1.64,3.37-3.73,6.41-6.21,9.02l-.05.05,1.56,3.9.12-.12c1.92-2.06,3.57-4.51,4.91-7.28v12.96h3.84v-13.51c1.03,1.33,2.29,3.06,3.76,5.16l.09.13,2.25-3.15-.06-.07c-2.04-2.34-4.09-4.47-6.06-6.33,0,0,.01-.59.02-.75h5.6v-3.33h-5.6v-12.59h-.11Zm2.84,2.63c-.73,2.96-1.6,5.44-2.6,7.37l-.06.11,3.5,1.09.04-.09c1.05-2.32,1.94-4.91,2.62-7.72l.03-.11-3.5-.77-.02.1Zm-9.15.07l-3.22.91.04.1c.78,2.36,1.44,4.84,1.97,7.38l.02.11,3.67-.77-.03-.11c-.67-2.83-1.45-5.37-2.32-7.56l-.03-.09-.1.02Zm29.67,13.45h-15.6v18.45h3.84v-5.95h11.33v1.67c0,.78-.35,1.18-1.08,1.22l-3.75-.15.72,3.21h4.39c1.06,0,1.9-.26,2.47-.78.73-.6,1.09-1.47,1.09-2.58v-12.2c0-.77-.26-1.42-.74-1.9-.99-.99-2.6-.99-2.67-.99Zm-.43,3.02v1.87h-11.33v-1.87h11.33Zm0,4.74v1.87h-11.33v-1.87c.21,0,11.11,0,11.33,0Z"/><path class="cls-2" d="m208.17,111h0-13.56c-1.12,0-1.23,1.07-1.23,1.08v32.67h4.04v-17.47h12v-15.32c0-.29-.08-.52-.26-.69-.38-.33-.97-.28-.99-.28Zm-2.79,3.09v3.28h-7.96v-3.28h7.96Zm0,6.21v3.85h-7.96v-3.85h7.96Zm8.3-9.31c-.41,0-.72.11-.93.34-.31.33-.3.77-.29.79v15.15h12.34v11.92c-.03,1.02-.51,1.54-1.46,1.57l-5.18-.15.87,3.64,5,.05c1.6,0,2.76-.31,3.45-.92.8-.65,1.2-1.66,1.2-3.01v-28.22c0-1.13-1.27-1.15-1.29-1.15h-13.71Zm11.12,3.09v3.28h-8.42v-3.28h8.42Zm0,6.21v3.85h-8.42v-3.85h8.42Z"/><path class="cls-2" d="m250.13,110.38l-.1.02.05.09c.51.74.97,1.57,1.38,2.44h-14.51c-1.44,0-1.54,1.45-1.54,1.46v5.45h4.09v-3.67h8.96c-.81.88-1.66,1.54-2.56,1.92-1.09.55-3.17,1.05-6.17,1.48h-.1s2.04,3.21,2.04,3.21c3-.56,5.24-1.25,6.7-2.07,1.43-.84,2.69-2.03,3.76-3.54l.05-.06s-1.36-.74-1.7-.93h5.49v2.74c0,.96.37,1.67,1.09,2.11.7.41,1.69.61,2.94.61h7.64v-2.78h-6.84c-.83,0-1.24-.28-1.24-.84v-1.83h8.42v3.67h4.08v-5.32c0-1.57-1.67-1.59-1.69-1.59h-14.55c-.38-1.09-.87-2.14-1.37-3.08-.06-.03-4.32.54-4.32.54Zm19.32,30.72v-15.95c0-1.75-1.79-1.88-1.81-1.88h-14.89c.72-.86,1.3-1.76,1.71-2.71l.03-.08-4.22-.47c-.43,1.17-1,2.25-1.76,3.26h-10.61v21.25h27.83s3.72-.18,3.72-3.43Zm-3.92-14.9v15.05h-23.75v-15.05c.13,0,23.62,0,23.75,0Zm-18.8,4h0c-1.15,1.01-2.6,1.96-4.33,2.84l-.08.03,2.37,2.72c.84-.39,1.55-.83,2.19-1.32,0,.03,3.03,1.11,3.82,1.39-1.97.6-4.31,1.14-6.99,1.61l-.1.02,1.7,2.92c4.07-.82,7.33-1.82,9.77-2.93,2.48,1.01,4.7,2.01,6.55,2.96.06,0,2.9-2.54,2.9-2.54l.07-.08s-5.6-2.29-5.81-2.38c1.73-1.12,3.49-2.59,5.23-4.37l.02-2.61h-11.51c.09-.18.68-1.33.68-1.33h-.1s-3.79-.31-3.79-.31c-.84,1.51-1.7,2.64-2.61,3.39Zm3,1.98l.19-.18s.47-.49.47-.49c0,0,8.14.02,8.52.02-1.29,1.03-2.57,1.88-3.8,2.53,0-.02-4.86-1.68-5.4-1.86,0,0,.02-.02.02-.02Z"/></g></svg>