<?xml version="1.0" encoding="UTF-8"?><svg id="_圖層_2" xmlns="http://www.w3.org/2000/svg" viewBox="0 0 285 170"><defs><style>.cls-1{fill:none;}.cls-2{fill:#434659;}</style></defs><g id="_按鈕"><rect class="cls-1" width="285" height="170"/><path class="cls-2" d="m125.02,75.61c-.24-1.81.38-2.8,2.01-3.7,5.49-3.04,8.23-8.14,9.68-14.02,1.61-6.53,1.32-13.06.25-19.65-.75-4.63-1.56-9.22-3.45-13.55-2.41-5.54-5.56-10.6-9.47-15.21-.29-.34-.57-.7-1.02-1.25,13.62-.2,27-.39,40.61-.58-.23.31-.32.46-.44.57-7.37,7.16-11.33,16.07-13.2,25.99-1.36,7.22-1.77,14.52-.57,21.8,1.21,7.32,4.74,13.13,11.6,16.6.35.18.6.81.65,1.26.07.54-.12,1.11-.21,1.74h-36.45Z"/><path class="cls-2" d="m142.99,108.38c-.34-.45-.58-.87-.91-1.2-17.95-17.93-35.9-35.85-53.87-53.75-.75-.75-1.11-1.49-1.07-2.57.08-2.57.02-5.14.02-8.07,18.79,18.47,37.35,36.72,56.05,55.1,18.81-18.31,37.58-36.57,56.59-55.08,0,3.3.02,6.31-.03,9.32,0,.3-.37.62-.63.88-18.47,18.27-36.95,36.52-55.43,54.78-.13.13-.28.23-.72.59Z"/><path class="cls-2" d="m110.18,14.68c4.42,0,8.58-.03,12.75.04.48,0,1.05.54,1.4.97,4.51,5.46,7.18,11.78,8.72,18.62,1.1,4.9,1.63,9.86,1.4,15.26-11.49-9.55-20.86-20.16-24.27-34.9Z"/><path class="cls-2" d="m152.55,48.72c0-3.21-.24-6.45.05-9.63.78-8.73,3.91-16.6,9.19-23.62.6-.79,1.22-1.11,2.22-1.09,3.28.06,6.57.02,9.85.02h1.54c-3.42,14.23-10.92,25.57-22.31,34.38-.18-.02-.36-.04-.53-.06Z"/><path class="cls-2" d="m121.33,147.2c-1.26,0-2.53,0-3.79,0,1.26,0,2.53,0,3.79,0,1.22,0,2.43-.03,3.65,0-1.22-.04-2.43,0-3.65-.01Z"/><path class="cls-2" d="m130.92,118.8c-6.09-.1-12.19-.03-18.29-.03v-.17c-5.91,0-11.83-.02-17.74,0-3.92.02-5.46,1.68-5.31,5.55.03.89.02,1.78.02,2.67,0,3.86.04,3.88,3.84,3.63,1.06-.07,1.51-.53,1.48-1.59-.03-1.26-.02-2.53.05-3.79.05-.93.47-1.69,1.51-1.7,3.8-.03,7.6-.06,11.4.05.46.01,1.15.78,1.28,1.3.21.87-.47,1.35-1.34,1.4-.65.04-1.31.01-1.97.01-2.11,0-4.22,0-6.33.03-1.46.03-1.92.53-1.96,1.96-.05,1.89.22,2.29,2.09,2.36,2.58.1,5.16.05,7.74.09.93.01,1.83.09,1.82,1.39,0,1.36-.96,1.28-1.86,1.28-3.29,0-6.57-.03-9.86.01-2.8.04-4.1,1.14-4.15,3.68-.08,4.07-.07,8.13-.02,12.2.02,1.87.25,2.02,2.19,2.03,3.75,0,7.51,0,11.26,0,.51,0,1.08-.05,1.52.15.38.17.83.67.83,1.03,0,.37-.42.88-.8,1.08-.37.21-.91.15-1.37.15-5.02-.03-10.04-.08-15.06-.11-.86,0-1.86-.19-2.25.94-.9,2.58-.03,3.9,2.65,3.92,4.83.03,9.67,0,14.5,0,2.21,0,2.27.03,2.4,2.21.07,1.18.59,1.83,1.84,1.79.98-.03,1.97.02,2.96,0,1.59-.04,1.95-.41,2.04-2.01.1-1.76.37-2.05,2.08-2.06,5.21-.03,10.42-.02,15.63-.09.63,0,1.69-.29,1.79-.65.28-1.04.43-2.27.11-3.25-.16-.47-1.48-.78-2.29-.79-5.16-.07-10.32-.03-15.49-.04-.81,0-1.78.07-1.76-1.07.02-1,.88-1.21,1.74-1.2,1.74,0,3.47.01,5.21.01,2.63,0,5.26-.02,7.88-.03,1.17,0,1.65-.58,1.64-1.76-.06-4.07-.08-8.15-.1-12.22-.01-2.8-.72-3.69-3.5-3.79-3.7-.14-7.41-.1-11.12-.13-.88,0-1.86-.03-1.84-1.2.02-1.1.86-1.41,1.88-1.41,2.39,0,4.79-.02,7.18-.04,2.61-.02,2.79-.24,2.7-2.82-.03-.98-.36-1.45-1.41-1.46-2.81-.04-5.62-.16-8.44-.21-1-.02-1.88-.24-1.91-1.36-.04-1.19.92-1.38,1.88-1.39,3.52-.02,7.04,0,10.56-.06,1.24-.02,1.67.58,1.66,1.71-.01,1.31.01,2.62.01,3.93,0,1.05.54,1.66,1.57,1.45,1.41-.29,3.32,1.01,4.13-1.24.03-.08.03-.19.02-.28-.1-2.01-.06-4.03-.34-6.01-.37-2.55-2.01-4.04-4.6-4.08Zm-29.87,19.29c2.29-.12,4.59-.14,6.88-.02.44.02.84.78,1.26,1.2-.48.32-.94.85-1.46.92-1.06.14-2.15.04-3.23.04v-.04c-1.08,0-2.17.09-3.23-.04-.49-.06-.92-.56-1.38-.86.38-.42.75-1.18,1.15-1.2Zm6.78,9.05c-1.12.04-2.25.01-3.37.01,0,0,0,.02,0,.03-1.03,0-2.06.02-3.09,0-.84-.03-1.61-.44-1.46-1.3.08-.45.91-1.06,1.43-1.09,2.15-.12,4.31-.07,6.46-.04.73.01,1.41.19,1.41,1.18,0,.95-.62,1.2-1.37,1.23Zm9.85-9.26c2.47-.14,4.94-.07,7.42-.06.85,0,1.28.45,1.26,1.32-.02.87-.56,1.09-1.3,1.08-1.26,0-2.52,0-3.78,0v-.03c-1.21,0-2.44.11-3.63-.05-.55-.07-1.02-.68-1.53-1.04.52-.43,1.02-1.19,1.56-1.22Zm-.18,6.82c2.53,0,5.05,0,7.58,0,.83,0,1.33.32,1.32,1.24,0,.98-.5,1.3-1.42,1.28-1.22-.04-2.43,0-3.65,0-1.26,0-2.53,0-3.79,0-.9,0-1.45-.46-1.46-1.34-.02-.89.61-1.17,1.42-1.16Z"/><path class="cls-2" d="m74.06,157.08c-.51-.06-1.03-.07-1.54-.07-6.34.02-12.67.07-19.01.07-2.54,0-2.77-.29-2.78-2.87,0-4.3,0-8.61,0-12.91,0-2.06.43-2.53,2.5-2.72,1.03-.1,1.54-.58,1.5-1.62-.02-.51-.03-1.03,0-1.54.06-.93-.39-1.42-1.28-1.5-.84-.07-1.68-.13-2.52-.14-5.77-.02-11.54-.04-17.32-.03-1.51,0-1.92.44-1.95,1.91-.06,2.85.02,2.93,2.86,2.93.23,0,.47,0,.7,0,1.03.03,1.54.53,1.52,1.58-.03,1.31.12,2.64-.06,3.93-.5,3.66-.93,7.39-3.93,10.08-1.68,1.51-3.04,3.07-2.56,5.62.26,1.38.41,1.7,1.77,1.21,2.95-1.05,5.06-3.13,6.73-5.7,2.9-4.46,3.53-9.5,3.73-14.64.04-1.02.41-1.98,1.35-1.98,1.12,0,1.25,1.18,1.37,2.12.02.13-.06.28-.06.41-.05,5.24-.27,10.49-.09,15.73.13,3.82,1.46,4.84,5.37,4.89,3.71.05,7.42.01,11.12.01,0-.03,0-.05,0-.08,3.89,0,7.79.01,11.68,0,1.91-.01,2.21-.34,2.22-2.2,0-.33-.02-.66,0-.98.05-.94-.46-1.39-1.32-1.49Z"/><path class="cls-2" d="m229.08,147.47h.02c0-3.89.01-7.77,0-11.66-.01-2.23-.79-3.06-3.01-3.18-1.22-.06-2.44.02-3.66-.02-1.34-.04-1.86-.61-1.8-1.94.08-1.54.21-3.08.28-4.62.06-1.21.66-1.78,1.87-1.77,1.17,0,2.35-.03,3.52-.02,1.22.01,1.51-.72,1.46-1.75-.05-1.02.34-2.36-1.36-2.39-4.08-.08-8.16-.1-12.24-.14-1.66-.02-1.63,1.21-1.73,2.34-.1,1.08.21,1.79,1.45,1.94,1.63.2,1.99.67,1.94,2.31-.06,1.68-.14,3.36-.27,5.04-.26,3.44-1.08,6.72-3.8,9.07-1.43,1.23-2,2.56-1.84,4.39.14,1.61.43,1.88,2.02,1.39,2.05-.64,2.34-.42,2.35,1.79,0,3.65.03,7.31,0,10.96,0,1.14.36,1.77,1.6,1.77,3.8-.02,7.6-.02,11.4,0,1.37,0,1.87-.59,1.84-1.98-.08-3.84-.03-7.68-.03-11.52Zm-5.64-.54h0c0,2.62-.02,5.25.01,7.87.01,1.06-.29,1.7-1.49,1.71-1.5.01-2.31-.44-2.32-1.62-.04-5.34-.04-10.68,0-16.02,0-1.43,1.08-1.55,2.19-1.53,1.05.02,1.65.37,1.63,1.58-.06,2.67-.02,5.34-.02,8.01Z"/><path class="cls-2" d="m164.37,133.12c-1.07-.08-2.16-.03-3.24-.08-.96-.04-1.45-.54-1.41-1.53.06-1.64.1-3.28.16-4.92.04-1.14.6-1.7,1.77-1.69,1.27,0,2.53-.05,3.8-.09.9-.03,1.41-.43,1.38-1.39-.01-.33,0-.66,0-.98,0-1.81-.14-1.95-1.89-1.94-1.97,0-3.94,0-5.91,0-2.02,0-4.04-.02-6.05.02-.43,0-1.2.16-1.24.37-.21,1.03-.39,2.12-.23,3.13.06.37,1.06.77,1.67.84,1.34.17,1.96.79,1.82,2.12-.24,2.23-.55,4.46-.73,6.69-.24,2.95-1.46,5.43-3.63,7.38-1.38,1.24-1.97,2.59-1.86,4.44.11,1.9.4,2.16,2.18,1.41,1.98-.84,2.35-.56,2.33,1.63-.03,3.61,0,7.21-.02,10.82,0,1.17.35,1.88,1.68,1.87,3.85-.02,7.7,0,11.55.02,1.03,0,1.56-.44,1.56-1.52-.01-7.59.01-15.17-.03-22.76-.01-2.28-1.39-3.66-3.66-3.84Zm-1.73,21.99c0,1.12-.28,1.95-1.65,1.91-1.64-.04-2.31-.55-2.31-1.97,0-5.29.03-10.59.03-15.88,0-1.32.67-1.84,1.93-1.83,1.49,0,1.96.4,1.98,1.89.03,2.72,0,5.43.01,8.15,0,2.58,0,5.15,0,7.73Z"/><path class="cls-2" d="m73.67,132.39c-.61,0-1.22,0-1.83-.02-1.72-.08-1.96-.32-1.98-2,0-.75-.03-1.5.01-2.25.05-.99-.41-1.49-1.37-1.57-.51-.04-1.03-.06-1.54-.07q-3.43-.02-3.44,3.37c0,2.07-.33,2.39-2.44,2.44-.28,0-.56,0-.84,0-3.16.05-2.96-.64-3.03,3.17-.03,1.38.62,1.81,1.9,1.76.98-.04,1.98-.03,2.92.18.46.11.79.74,1.18,1.14-.44.4-.83,1.01-1.35,1.17-.69.21-1.49.14-2.23.09-1.5-.11-2.49.62-3.24,1.81-.74,1.19-1.53,2.36-2.21,3.58-.59,1.06-1.14,2.15-1.55,3.28-.13.35.09,1.11.39,1.29,1.37.82,4.46-.13,5.3-1.52,1.06-1.76,2.13-3.53,3.24-5.26.34-.52.82-.95,1.23-1.43.14.04.28.09.42.13.1.39.29.78.27,1.16-.07,2.24-.12,4.48-.34,6.71-.05.47-.76.95-1.26,1.27-.32.2-.82.08-1.24.11-1.42.12-1.69.58-1.68,2.47,0,1.28.73,1.6,1.81,1.58,1.27-.03,2.53-.06,3.8-.09,3.84-.11,5.3-1.61,5.31-5.47,0-3.46,0-6.93,0-10.39,0-1.7.45-2.13,2.18-2.14.38,0,.75,0,1.13,0,2.27,0,2.56-.37,2.43-2.66-.07-1.31-.72-1.84-1.95-1.84Z"/><path class="cls-2" d="m78.42,124.15c-.39-3.59-1.53-4.68-5.15-4.72-6.33-.08-12.66-.02-18.99-.02,0-.02,0-.04,0-.06-6.42,0-12.85-.02-19.27,0-3.17.01-4.74,1.25-5.23,4.33-.29,1.83-.26,3.72-.27,5.59,0,.98.59,1.53,1.63,1.5,1.12-.02,2.25-.06,3.38-.02,1.15.03,1.62-.53,1.62-1.62,0-.94,0-1.87.05-2.81.12-2.16.36-2.38,2.51-2.38,10.08,0,20.17,0,30.25.01.33,0,.66-.04.98.02,1.08.2,1.8.71,1.76,1.95-.04,1.08-.02,2.15,0,3.23.02.86.43,1.44,1.36,1.47,1.31.03,2.63.07,3.94,0,.86-.04,1.56-.4,1.54-1.45-.03-1.68.07-3.38-.11-5.05Z"/><path class="cls-2" d="m191.51,153.51c-.26.65-.55,1.32-.97,1.86-.29.37-.84.55-1.27.81-.01-.51-.19-1.08-.02-1.51,1.38-3.33,2.81-6.64,4.26-9.93,1.2-2.72,1.23-2.71-1.72-2.82-1.58-.06-1.82-.41-1.25-1.9.89-2.31,1.83-4.61,2.64-6.95.15-.42-.16-1.45-.33-1.47-1.3-.12-2.66-.27-3.9.03-.57.14-.99,1.22-1.32,1.95-1.44,3.2-2.89,6.4-4.2,9.65-.74,1.85-.02,2.9,1.89,3.18,2.23.32,2.3.6,1.39,2.7-1.36,3.13-2.67,6.28-3.83,9.48-.61,1.7.12,2.56,1.94,2.66,1.03.06,2.06.01,3.1.01h0c1.03,0,2.09.14,3.09-.04.7-.12,1.66-.5,1.94-1.05,1.14-2.2,2.08-4.5,3.02-6.8.14-.34.03-1.03-.22-1.22-1.08-.83-3.75.09-4.26,1.34Z"/><path class="cls-2" d="m182.23,152c-1.8-.19-2.81.34-3.61,1.94-.33.67-.56,1.42-1.01,2-.31.4-.93.56-1.41.83-.08-.53-.37-1.14-.19-1.56,1.43-3.56,2.95-7.08,4.44-10.62.77-1.84.64-2.05-1.32-2.29-2.18-.26-2.3-.51-1.43-2.57.94-2.24,1.87-4.49,2.71-6.77.15-.39-.02-1.24-.3-1.4-1.49-.83-4.36.04-5.1,1.57-1.44,2.99-2.76,6.04-4.13,9.06-1.18,2.61-.59,3.79,2.16,4.34,1.29.26,1.59.8,1.08,1.98-.42.99-.91,1.95-1.33,2.94-.98,2.32-2,4.63-2.9,6.99-.68,1.8-.01,2.71,1.88,2.76,1.03.03,2.06,0,3.09,0,1.13,0,2.27.12,3.37-.05.66-.1,1.57-.49,1.83-1.01,1.1-2.27,2.02-4.63,2.98-6.96.31-.76-.02-1.13-.82-1.21Z"/><path class="cls-2" d="m172.63,128.55c3.47.03,6.94,0,10.41,0,0-.02,0-.03,0-.05,3.56,0,7.12.02,10.68-.02.48,0,1.32-.2,1.36-.43.2-1.03.33-2.13.14-3.15-.07-.37-1.06-.69-1.67-.81-1.09-.21-1.5-.67-1.02-1.74.31-.68.72-1.35.86-2.06.08-.42-.14-1.19-.45-1.34-1.71-.82-4.15-.03-4.7,1.76-.92,3.01-2.84,3.92-5.73,3.47-.09-.01-.19-.01-.28,0-1.45.18-2.44-.41-2.98-1.78-.15-.39-.45-.72-.6-1.11-.87-2.31-2.66-2.74-4.87-2.47-1.04.12-1.31.56-.95,1.49.27.7.55,1.39.79,2.1.47,1.38.28,1.6-1.15,1.78-.61.08-1.42.23-1.72.65-1.13,1.58-.03,3.67,1.89,3.69Z"/><path class="cls-2" d="m44.26,130.25v-.06c1.4,0,2.8.01,4.21,0,1.69-.02,2.03-.44,2-2.09-.02-1.19-.69-1.55-1.7-1.56-2.89-.01-5.79.02-8.68-.01-1.12-.01-1.8.32-1.8,1.57,0,1.77.29,2.16,1.76,2.16,1.4,0,2.8,0,4.2,0Z"/><path class="cls-2" d="m235.7,155.4c-.93,1.03-1.8,2.13-2.65,3.24-.69.89.53,1.37,1.23,1.53,1.1.24,2.25-.05,3.07-.83,1.04-.98,1.84-2.21,2.64-3.41,1.21-1.82-3.47-1.42-4.29-.52Z"/><path class="cls-2" d="m162.63,139.23c.03,2.72,0,5.43,0,8.15,0,2.58,0,5.15,0,7.73,0-2.58,0-5.15,0-7.73,0-2.72.02-5.43-.01-8.15Z"/><path class="cls-2" d="m252.91,149.27c-.7-.07-1.78.12-1.64-.96.05-.41,1.12-.69,1.74-1.01.11-.06.28,0,.42-.01,1.77-.04,2.1-.42,2.06-2.36-.05-2.03-.24-2.26-2.13-2.18-.93.04-1.84.29-2.76.4-1.02.12-2.05.35-3.05.25-.43-.05-1.22-.42-1.46-.81-.39-.63,1.16-1.13,1.57-1.16,1.44-.14,2.91-.03,4.36-.05,1.72-.02,2.02-.33,2.02-2.09,0-3.19,0-6.37,0-9.56,0-1.91-.98-2.96-2.89-3.03-1.2-.05-2.41.13-3.62-.05-.48-.07-1.33-.18-1.57-.68-.41-.84.74-1.41,1.42-1.46,1.87-.13,3.75-.04,5.63-.05,1.7-.01,2.07-.39,2.07-2.07,0-1.53-.4-1.9-2.09-1.89-1.78.01-3.56.07-5.35.07-1.06,0-2.05-.06-2.4-1.42-.09-.37-.77-.74-1.23-.83-.72-.14-1.5,0-2.25-.04-.96-.04-1.54.3-1.95,1.23-.2.45-.94.88-1.46.93-1.54.14-3.09.09-4.64.08-2.75-.01-2.69-.02-2.76,2.72-.03,1.28.51,1.63,1.68,1.59,1.88-.06,3.76-.08,5.63.03,1.55.09,1.53,1.6,0,1.82-1.2.16-2.44.01-3.65.07-1.74.09-2.72.94-2.73,2.38-.03,3.61,0,7.21-.03,10.82,0,1.11.53,1.5,1.56,1.48,1.45-.02,2.91-.03,4.36,0,.46,0,.96.04,1.35.25,1.9.99-.66,1.83-1.58,1.85-1.6.03-3.19.06-4.79,0-1.32-.05-1.89.45-1.84,1.81.06,1.71.2,1.95,1.78,1.96,3.52.02,7.04,0,10.56,0,.37,0,.82-.1,1.11.07.4.23.81.61.95,1.02.06.17-.49.71-.85.84-.51.18-1.1.19-1.66.19-3.33.02-6.66.05-10,0-1.26-.02-1.91.28-1.91,1.71,0,1.38.53,1.82,1.84,1.77,1.78-.07,3.57-.02,5.35-.02,0,.01,0,.03,0,.04,1.92,0,3.85.01,5.77,0,1.06,0,1.51.51,1.57,1.54.14,2.32-.06,2.57-2.39,2.73-.28.02-.56.04-.84.08-1.52.2-1.25,1.37-1.28,2.38-.03,1.02.43,1.6,1.5,1.6,1.97,0,3.94.06,5.91-.03,2-.09,2.67-.83,2.76-2.8.04-.84.02-1.69.02-2.53,0-2.59.03-2.64,2.66-2.78,1.08-.06,1.62-.48,1.63-1.63.02-1.87-.06-1.97-2.5-2.2Zm-14.11-11.2h-1.66c-.57,0-1.04-.47-1.04-1.04s.47-1.04,1.04-1.04h1.66c.57,0,1.04.47,1.04,1.04s-.47,1.04-1.04,1.04Zm0-5.54h-1.66c-.57,0-1.04-.47-1.04-1.04s.47-1.04,1.04-1.04h1.66c.57,0,1.04.47,1.04,1.04s-.47,1.04-1.04,1.04Zm9.8,5.54h-1.66c-.57,0-1.04-.47-1.04-1.04s.47-1.04,1.04-1.04h1.66c.52,0,.94.4,1.01.91,0,0,0,0,0,0,0,0,0,0,0,0,0,.04.03.08.03.12,0,.57-.47,1.04-1.04,1.04Zm-1.66-7.62h1.66c.57,0,1.04.47,1.04,1.04s-.47,1.04-1.04,1.04h-1.66c-.53,0-.96-.41-1.02-.93v-.2s0,0,0,0c.05-.53.48-.95,1.02-.95Z"/></g></svg>