<?xml version="1.0" encoding="UTF-8"?><svg id="_圖層_2" xmlns="http://www.w3.org/2000/svg" viewBox="0 0 285 170"><defs><style>.cls-1{fill:none;}.cls-2{fill:#434659;}</style></defs><g id="_按鈕"><rect class="cls-1" width="285" height="170"/><path class="cls-2" d="m66.02,91.99c-.84-1.19-1.1-1.76.58-2.38,2.19-.81,3.91-2.33,5.2-4.33,6.47-10.04,1.02-22.5-10.74-24.31-8.67-1.34-17.42-.41-26.13-.64-1.74-.04-1.64,1.2-1.64,2.38,0,7.68,0,15.37,0,23.05,0,7.68.04,15.37-.03,23.05-.02,1.81.61,2.53,2.42,2.46,2.14-.08,4.29-.13,6.42.01,2.14.14,2.93-.62,2.88-2.79-.13-4.66-.04-9.32-.05-13.98,0-3.17.02-2.95,3.28-3.24,2.99-.26,4.76.79,6.35,3.28,3.17,4.96,6.72,9.67,10.03,14.54,1.13,1.67,2.5,2.42,4.52,2.33,2.47-.11,4.94-.01,7.41-.03.71,0,1.59.26,1.99-.57.4-.82-.37-1.36-.76-1.93-3.89-5.66-7.77-11.33-11.74-16.93Zm-9.45-8.82c-3.57.71-7.21.16-10.81.33-1.12.05-1.13-.6-1.12-1.4.02-2.12,0-4.24,0-6.36,0-1.88.1-3.76-.03-5.63-.11-1.58.35-2.13,2.02-2.02,2.85.19,5.71.11,8.56.2,4.7.14,7.16,2.43,7.55,6.93.37,4.3-1.73,7.06-6.18,7.95Z"/><path class="cls-2" d="m233.32,85.59c-.16-6.08-3.4-10.24-9.11-12.41-5.65-2.14-11.43-1.99-17.22-.66-5.26,1.21-9.59,3.8-12.05,8.81-1.06,2.16-.78,2.57,1.58,2.59,2.55.03,5.1-.05,7.65.03,1.32.04,2.28-.34,3.27-1.27,2.83-2.68,8.11-3.32,11.53-1.53,1.88.98,2.91,2.54,3.12,4.67.12,1.19-.21,1.57-1.48,1.46-2.21-.2-4.44-.33-6.65-.23-5.78.29-11.48,1.02-16.32,4.6-6.71,4.96-6.23,13.82.93,18.12,5.67,3.4,16.73,4.24,23.32-1.32.5,2.58,2.09,3.23,4.37,3.01,1.63-.16,3.29-.09,4.93-.01,1.53.07,2.26-.42,2.25-2.07-.07-7.93.08-15.86-.13-23.78Zm-11,12.43c-.99,4.93-5.06,7.7-10.84,7.34-1.47-.09-2.94-.26-4.31-.87-1.88-.83-3.38-1.91-3.48-4.26-.1-2.43,1.31-3.73,3.24-4.68,2.6-1.28,5.61-1.76,10.57-1.76.49,0,.99,0,1.48,0,3.82,0,4.12.39,3.34,4.23Z"/><path class="cls-2" d="m177.99,72.38c-6.6-1.51-13.09-1.45-18.64,4.01q-.36-3.84-3.92-3.84h-1.98q-5.77,0-5.77,5.67c0,10.13.04,20.27-.04,30.4-.02,2.04.67,2.81,2.71,2.68,1.97-.13,3.96-.16,5.92,0,2.45.22,3.07-.81,3.03-3.11-.13-6.29-.09-12.59-.02-18.88.05-4.78,2.54-8.04,6.56-8.86,6.08-1.23,10.65,2.35,10.71,8.52.07,6.62.08,13.24,0,19.86-.02,1.84.68,2.5,2.45,2.45,2.38-.07,4.77-.05,7.16-.02,1.45.02,2.1-.58,2.09-2.04-.03-7.85.16-15.7-.1-23.53-.24-7.22-3.77-11.85-10.17-13.31Z"/><path class="cls-2" d="m140.96,83.52c-.59-5.35-3.55-9.18-8.76-10.73-6.99-2.09-13.78-2.02-19.81,3.51q-.34-3.75-3.93-3.75c-1.89,0-3.79.06-5.68-.02-1.5-.06-2.05.55-2.05,2.01.03,11.6.02,23.21,0,34.82,0,1.34.58,1.94,1.93,1.92,2.3-.03,4.62-.13,6.91.03,2.22.15,2.82-.76,2.79-2.85-.11-6.45-.11-12.91-.02-19.37.08-5.42,3.63-8.95,8.72-8.9,5.17.05,8.53,3.57,8.55,9.03.03,5.31,0,10.62,0,15.94,0,6.12,0,6.15,6.12,6.12,6.28-.03,5.6.7,5.54-5.46-.07-7.43.49-14.88-.33-22.29Z"/><path class="cls-2" d="m251.59,91.87c0-5.72-.05-11.44.03-17.16.02-1.58-.47-2.23-2.09-2.18-2.47.08-4.94.07-7.4,0-1.63-.05-2.14.68-2.14,2.21.03,11.44.04,22.88,0,34.31,0,1.73.76,2.3,2.4,2.25,2.22-.07,4.45-.1,6.66,0,1.88.09,2.62-.53,2.58-2.52-.12-5.63-.04-11.27-.04-16.91Z"/><path class="cls-2" d="m94.15,92.09c0-5.72-.02-11.43.02-17.15.01-1.53-.26-2.5-2.14-2.42-2.54.11-5.1.05-7.65.02-1.22-.01-1.79.47-1.79,1.74.02,11.68.02,23.36,0,35.03,0,1.52.7,1.99,2.11,1.96,2.3-.05,4.61-.1,6.91.02,1.94.1,2.6-.66,2.57-2.55-.08-5.55-.03-11.11-.03-16.66Z"/><path class="cls-2" d="m245.86,57.52c-3.29-.03-5.99,2.73-6.03,6.17-.04,3.34,2.8,6.11,6.15,6,3.25-.11,5.79-2.81,5.75-6.14-.04-3.3-2.67-6.01-5.87-6.04Z"/><path class="cls-2" d="m88.41,57.67c-3.28-.04-6.04,2.8-5.98,6.16.05,3.27,2.71,5.94,5.92,5.96,3.25.02,5.89-2.58,5.99-5.88.1-3.34-2.62-6.2-5.93-6.24Z"/></g></svg>