<?xml version="1.0" encoding="UTF-8"?><svg id="_圖層_2" xmlns="http://www.w3.org/2000/svg" viewBox="0 0 285 170"><defs><style>.cls-1{fill:none;}.cls-2{fill:#434659;}</style></defs><g id="_按鈕"><rect class="cls-1" width="285" height="170"/><path class="cls-2" d="m184.85,72.92c-8.35,0-8.38.02-4.19,7.5,2.78,4.98,5.1,9.95,3.19,15.92-2.13,6.65-6.26,11-13.23,12.3-6.89,1.29-12.66-.9-16.97-6.33-2.01-2.53-3.39-5.56-5.08-8.35-.62-1.03-.8-2.74-2.07-2.85-1.46-.13-1.53,1.69-2.13,2.67-1.39,2.25-2.5,4.67-3.93,6.89-5.23,8.17-15.64,10.77-23.71,6.02-7.96-4.7-10.66-14.58-6.27-23.19,1.27-2.49,2.66-4.93,4.1-7.32,1.3-2.16,1.36-3.41-1.72-3.26-2.49.12-4.98.04-7.48.01-9.97-.09-17.71-7.56-17.81-17.17-.1-9.68,7.45-17.18,17.52-17.38,2.8-.05,5.61-.05,8.41,0,2.28.04,2.85-.7,1.57-2.74-1.49-2.37-2.93-4.78-4.24-7.25-4.7-8.87-1.91-19.42,6.29-24.01,8.43-4.72,18.47-1.8,23.85,6.81,1.78,2.85,2.86,7.97,5.43,8.01,2.74.04,3.67-5.07,5.41-7.91,5.27-8.64,15.27-11.6,23.83-6.94,8.35,4.54,11.3,14.94,6.77,23.85-.14.28-.33.53-.46.82-1.36,3.03-5.44,6.05-3.98,8.72,1.1,2,6.05.54,9.29.6,10.58.2,18.03,7.34,17.96,17.34-.08,10.15-7.44,17.2-18.03,17.25-.78,0-1.56,0-2.34,0Zm-36.78-26.74c-.84-1.28-1.38-2.01-1.84-2.79-5.18-8.87-10.23-17.81-15.54-26.6-3.18-5.25-8.81-6.74-13.69-4.04-5.05,2.8-6.75,8.64-3.98,14.13,1.19,2.35,2.95,4.44,3.97,6.86,1.67,3.94,4.45,4.88,8.5,4.71,3.72-.16,3.38-1.35,1.88-3.77-1.8-2.91-3.48-5.9-5.14-8.89-.54-.98-1.86-2.16-.03-3.09,1.5-.76,1.82.8,2.31,1.62,2.47,4.15,4.86,8.33,7.26,12.52,2.34,4.08,4.64,8.18,7.26,12.79-2.15,0-3.39,0-4.63,0-9.66,0-19.32-.14-28.98.07-6.48.14-10.91,4.73-10.75,10.53.15,5.57,4.59,9.61,10.94,9.87,2.18.09,4.41-.27,6.53.08,4.66.77,7.01-1.5,8.99-5.39,1.6-3.14.41-3.33-2.19-3.27-3.74.08-7.48.02-11.22,0-.98,0-2.02-.16-2.03-1.37-.01-1.3,1.14-1.27,2.05-1.27,9.6-.02,19.2-.01,29.45-.01-1.06,2.08-1.76,3.59-2.57,5.03-4.59,8.13-9.28,16.2-13.79,24.37-3.12,5.65-1.51,11.61,3.69,14.5,4.99,2.77,10.62,1.03,14-4.38,1.07-1.71,1.81-3.69,3.1-5.2,3.46-4.04,2.62-7.63-.29-11.56-1.47-1.98-1.97-1.92-3.06.08-1.78,3.28-3.69,6.49-5.58,9.71-.59,1.01-1.03,2.6-2.71,1.72-1.97-1.03-.25-2.12.24-2.98,3.45-6.09,6.96-12.15,10.52-18.18,1.29-2.18,2.19-4.64,4.33-6.59,1.07,1.76,1.99,3.19,2.84,4.66,4.67,8.08,9.23,16.23,14.02,24.24,3.14,5.25,9.24,6.87,14.11,4.08,5-2.86,6.51-8.7,3.61-14.2-1.09-2.06-2.65-3.94-3.39-6.11-1.77-5.12-5.62-5.46-10.07-5.07-2,.18-2.5.7-1.4,2.54,2.01,3.33,3.9,6.73,5.82,10.11.51.9,1.53,1.94.07,2.76-1.47.83-1.87-.68-2.35-1.51-4.82-8.29-9.6-16.62-14.62-25.34,1.88-.09,3.23-.21,4.58-.22,9.97-.04,19.95.12,29.91-.15,5.89-.16,10.28-4.85,10.2-10.09-.08-5.34-4.51-9.72-10.32-10.07-2.48-.15-5.07.36-7.46-.14-5.48-1.13-7.35,2.33-9.26,6.31-1.06,2.2-.1,2.37,1.62,2.37,3.89,0,7.79-.03,11.68.03.98.02,2.49-.33,2.41,1.35-.08,1.57-1.51,1.26-2.53,1.27-4.21.03-8.41.01-12.62.01-5.33,0-10.66,0-16.67,0,5.87-10.34,11.28-19.76,16.57-29.25,3.26-5.84,1.82-11.41-3.54-14.45-5.3-3.01-10.83-1.3-14.26,4.46-1.12,1.87-1.87,4.02-3.23,5.67-3.03,3.66-2.29,6.79.31,10.33,1.59,2.17,2.25,2.64,3.62-.01,1.79-3.45,3.84-6.76,5.77-10.14.5-.87,1.07-1.55,2.21-.93,1.02.55,1.16,1.15.52,2.22-5.02,8.54-9.98,17.12-15.17,26.05Z"/><path d="m32.4,138.16c0-.67.35-1.01,1.05-1.01h31.24c.73,0,1.09.32,1.09.97v27.25c-.1,1.47-1.02,2.3-2.76,2.5h-29.53c-.73,0-1.09-.32-1.09-.97v-28.75Zm28.08,3.47c0-.58-.28-.88-.84-.88h-21.02c-.61,0-.91.27-.91.81v21.9c0,.54.3.81.91.81h20.19c1.33.09,1.89-.43,1.67-1.56v-21.09Zm-10.8.97c-.02-.37.33-.55,1.05-.55h2.55c.73,0,1.11.16,1.16.49.07.41.44.62,1.09.62.7,0,.99-.22.87-.65-.1-.37.12-.55.65-.55s.88.18.98.55c.12.43.31.65.58.65.29,0,.44.32.44.97v1.1c0,.65-.36.97-1.09.97h-2.04c-.61,0-.85.35-.73,1.04l.95,5.26c.12.56.24.87.36.91.12-.06.25-.42.4-1.07l.44-3.67c.07-.67.39-1.01.95-1.01s.84.32.76.97l-.73,7.46c-.12.61-.49,1.09-1.09,1.46-.15.06-.18.27-.11.62.15.65.59.96,1.35.94.39,0,.58.32.58.97v1.62c0,.65-.36.97-1.09.97h-2.76c-.92-.11-1.64-.43-2.15-.97-.41-.67-.68-1.72-.8-3.15-.1-.54-.32-.81-.65-.81-.32,0-.55-.32-.69-.97l-.29-1.33c-.12-.67-.01-1.01.33-1.01.39,0,.53-.33.44-1.01l-.95-6.13c-.1-.73-.45-1.1-1.05-1.1h-8.88c-.73,0-1.09-.32-1.09-.97v-1.1c0-.65.36-.97,1.09-.97h8.33c.61,0,.88-.18.84-.55Zm-10.26,18.07c0-.69.34-1.04,1.02-1.04h7.89c.73,0,1.09.32,1.09.97v1.1c0,.65-.36.97-1.09.97h-7.82c-.73,0-1.09-.32-1.09-.97v-1.04Zm.04-11.55c0-.69.34-1.04,1.02-1.04h7.6c.73,0,1.09.32,1.09.97v6.29c-.02,1.45-.96,2.29-2.8,2.53h-5.82c-.73,0-1.09-.32-1.09-.97v-7.79Zm6.26,2.89c0-.58-.28-.88-.84-.88h-1.05c-.61,0-.91.27-.91.81v2.08c0,.54.34.81,1.02.81,1.31.24,1.9-.29,1.78-1.59v-1.23Z"/><path d="m70.26,150.43c0-.69.34-1.04,1.02-1.04h31.57c.73,0,1.09.32,1.09.97v1.1c0,.65-.36.97-1.09.97h-26.22c-.61,0-.91.27-.91.81v12.17c0,1.38-.91,2.21-2.73,2.47h-2.33c-.73,0-1.15-.32-1.27-.97-.15-.54-.25-1.08-.33-1.62-.12-.65-.06-.98.18-1.01.87-.13,1.21-.64,1.02-1.52v-12.33Zm13.82-13.14c0-.45.34-.68,1.02-.68h3.38c.73,0,1.09.22,1.09.65,0,.45.3.68.91.68h12.37c.73,0,1.09.32,1.09.97v1.4c0,.65-.36.97-1.09.97-.7-.11-1.55.1-2.55.62l-5.82,2.34c-.49.24-.78.4-.87.49.05.28.48.39,1.31.32h7.67c.73,0,1.09.32,1.09.97v.71c0,.65-.36.97-1.09.97h-12.04c-.73-.06-1.46-.18-2.18-.36-.73-.17-1.21-.24-1.46-.19-.9.3-1.93.49-3.09.55h-12.26c-.73,0-1.18-.32-1.35-.97l-.18-.68c-.17-.67.08-1.01.76-1.01h7.17c.82-.11.85-.36.07-.75l-2.69-.84c-.73-.22-.73-.32,0-.32h7.53c.7-.11,1.55.04,2.55.45.34.17.82.09,1.45-.26l2.91-1.04c.7-.19,1.22-.42,1.56-.68.02-.09-.04-.17-.18-.26-.19-.04-.57-.06-1.13-.06h-19.9c-.73,0-1.09-.32-1.09-.97v-1.4c0-.65.36-.97,1.09-.97h13.02c.61,0,.91-.22.91-.65Zm-4.95,17.1c.22-.35.65-.52,1.31-.52h3.06c.73,0,.98.19.76.58-.22.43-.01.65.62.65h2.73c.61,0,.91-.21.91-.62,0-.39.36-.58,1.09-.58h3.46c.73,0,1.09.19,1.09.58,0,.41.3.62.91.62h7.24c.73,0,1.09.32,1.09.97v.84c0,.65-.36.97-1.09.97h-7.24c-.61,0-.91.34-.91,1.01s.3,1.01.91,1.01h6.91c.73,0,1.09.32,1.09.97v.84c0,.65-.36.97-1.09.97h-6.91c-.61,0-.91.36-.91,1.07s.3,1.07.91,1.07h7.53c.73,0,1.09.32,1.09.97v1.1c0,.65-.36.97-1.09.97h-23.86c-.73,0-1.09-.32-1.09-.97v-1.1c0-.65.36-.97,1.09-.97h8.87c.61,0,.91-.36.91-1.07s-.3-1.07-.91-1.07h-8.15c-.73,0-1.09-.32-1.09-.97v-.84c0-.65.36-.97,1.09-.97h8.15c.61,0,.91-.34.91-1.01s-.3-1.01-.91-1.01h-4.76c-.58,0-1.12.09-1.6.26-.51.13-1.26.17-2.25.13-.73,0-1.18-.32-1.35-.97l-.18-.75c-.17-.71-.13-1.07.11-1.07.7.02,1.22-.35,1.56-1.1Z"/><path d="m124.42,137.45c0-.56.34-.84,1.02-.84h3.35c.73,0,1.09.26,1.09.78,0,.56.3.84.91.84h7.93c.73,0,1.09.32,1.09.97v3.28c0,.54.22.81.65.81.41,0,.62.32.62.97v1.1c0,.65-.21.97-.62.97-.44,0-.65.27-.65.81.05,1.06,0,1.82-.15,2.27-.41,1.21-1.3,1.83-2.66,1.85h-6.22c-.61,0-.91.27-.91.81v.65c0,.54.3.81.91.81h7.6c.73,0,1.09.32,1.09.97v.84c0,.65-.36.97-1.09.97h-7.6c-.61,0-.91.27-.91.81v.65c0,.54.3.81.91.81h8.18c.73,0,1.09.32,1.09.97v1.1c0,.65-.36.97-1.09.97h-8.18c-.61,0-.91.27-.91.81v.78c0,.54.3.81.91.81h9.2c.73,0,1.09.32,1.09.97v1.88c0,.65-.36.97-1.09.97h-23.79c-.78-.09-1.46-.3-2.04-.65-.58-.35-1.01-.4-1.27-.16-.41.43-.97.69-1.67.78l-3.64.03c-.73,0-1.09-.32-1.09-.97v-1.88c0-.65.13-.97.4-.97.99-.02,1.41-.55,1.24-1.59v-7.59c.29-.91-.18-1.42-1.42-1.52-.34,0-.51-.32-.51-.97v-1.88c0-.65.18-.97.55-.97,1.09.02,1.55-.51,1.38-1.59v-5.42c.19-.97-.28-1.47-1.42-1.49-.34,0-.51-.32-.51-.97v-1.91c0-.65.36-.97,1.09-.97h3.46c1.67.09,2.62.92,2.84,2.5v9.93c-.15.43-.46.89-.95,1.36-.56.32-.46.7.29,1.14.41.39.63.79.65,1.2v8.11c0,.52.16.99.47,1.43.7.76,1.42,1.17,2.15,1.23h7.31c.61,0,.91-.27.91-.81v-.78c0-.54-.3-.81-.91-.81h-6.18c-.73,0-1.09-.32-1.09-.97v-1.1c0-.65.36-.97,1.09-.97h6.18c.61,0,.91-.27.91-.81v-.65c0-.54-.3-.81-.91-.81h-5.6c-.73,0-1.09-.32-1.09-.97v-.84c0-.65.36-.97,1.09-.97h5.6c.61,0,.91-.27.91-.81v-.65c0-.54-.3-.81-.91-.81h-5.6c-.73,0-1.09-.32-1.09-.97v-.84c0-.65.36-.97,1.09-.97h5.6c.61,0,.91-.36.91-1.07s-.3-1.07-.91-1.07h-6.91c-.73,0-1.09-.32-1.09-.97v-1.1c0-.65.36-.97,1.09-.97h6.91c.61,0,.91-.27.91-.81v-.65c0-.54-.3-.81-.91-.81h-5.6c-.73,0-1.09-.32-1.09-.97v-.84c0-.65.36-.97,1.09-.97h5.6c.61,0,.91-.26.91-.78Zm10.48,4.38c0-.54-.3-.81-.91-.81h-3.2c-.61,0-.91.27-.91.81v.65c0,.54.3.81.91.81h3.2c.61,0,.91-.27.91-.81v-.65Zm0,5.22c0-.48-.29-.71-.87-.71h-3.24c-.61,0-.91.36-.91,1.07s.3,1.07.91,1.07c1.16.02,2.33,0,3.49-.06.53-.32.74-.78.62-1.36Z"/><path d="m144.28,146.44c0-.65.38-.97,1.13-.97s1.13.32,1.13.97v16.19c0,.65-.08,1.19-.25,1.62-.36.67-.92,1.05-1.67,1.14-.36.04-.61-.31-.73-1.07-.15-.56-.25-1.14-.33-1.72-.15-.71-.16-1.08-.04-1.1.68-.3.93-.82.76-1.56v-13.5Zm4.22-8.79c0-.69.34-1.04,1.02-1.04h3.35c.73,0,1.09.32,1.09.97v.97c0,.54.3.81.91.81h2.8c.73,0,1.09.32,1.09.97v1.91c0,.65-.36.97-1.09.97h-2.8c-.61,0-.91.27-.91.81v22.87c0,.65-.36.97-1.09.97h-3.27c-.73,0-1.09-.32-1.09-.97v-22.87c0-.54-.3-.81-.91-.81h-2.84c-.73,0-1.09-.32-1.09-.97v-1.91c0-.65.36-.97,1.09-.97h2.84c.61,0,.91-.27.91-.81v-.91Zm7.42,8.79c0-.65.38-.97,1.13-.97s1.13.32,1.13.97v17.49c0,.65-.38.97-1.13.97s-1.13-.32-1.13-.97v-17.49Zm7.02.42c.07-.76.4-1.14.98-1.14h3.16c.73,0,1.06.32.98.97l-1.75,17.84c0,.78-.47,1.52-1.42,2.24-.9.41-1.94.56-3.13.45-.73,0-1.16-.32-1.31-.97-.15-.54-.25-1.08-.33-1.62-.17-.82-.15-1.23.07-1.23,1.09-.06,1.56-.68,1.42-1.85l1.31-14.7Zm8.26-8.92c0-.69.34-1.04,1.02-1.04h3.35c.73,0,1.09.32,1.09.97v.68c0,.54.29.81.87.81s.87.32.87.97v1.91c0,.65-.28.97-.84.97-.61,0-.91.27-.91.81v21.09c-.1,1.38-1.1,2.3-3.02,2.76h-3.16c-.73,0-1.15-.32-1.27-.97l-.29-1.62c-.15-.82-.02-1.23.36-1.23,1.5-.09,2.15-.68,1.93-1.78v-18.23c0-.54-.3-.81-.91-.81h-8.07c-.73,0-1.09-.32-1.09-.97v-1.91c0-.65.36-.97,1.09-.97h8.07c.61,0,.91-.27.91-.81v-.62Z"/><path d="m195.53,137.09c0-.32.34-.49,1.02-.49h3.35c.73,0,1.09.14,1.09.42,0,.32.3.49.91.49h12.55c.73,0,1.09.32,1.09.97v2.98c0,.65-.28.97-.84.97-.61,0-.91.27-.91.81v1.3c0,.54.31.81.95.81s.95.34.95,1.01-.3,1.01-.91,1.01c-.65,0-.99.34-1.02,1.01-.36,1.64-1.35,2.43-2.95,2.37h-27.13c-.73,0-1.09-.32-1.09-.97v-1.59c0-.54-.3-.81-.91-.81s-.87-.33-.87-1.01.29-1.01.87-1.01.91-.27.91-.81v-1.3c0-.54-.29-.81-.87-.81s-.87-.32-.87-.97v-2.98c0-.65.36-.97,1.09-.97h12.69c.61,0,.91-.14.91-.42Zm-13.24,16.29c0-.67.35-1.01,1.05-1.01h29.64c.73,0,1.09.32,1.09.97v9.08c-.05,1.36-.87,2.17-2.47,2.43l-2.33.03c-.61,0-.82.17-.65.52.44.71,1.02,1.12,1.75,1.23h4.22c.73,0,1.09.21,1.09.62s-.36.62-1.09.62h-9.82c-1.48-.09-2.57-.78-3.27-2.08-.49-.61-1.02-.91-1.6-.91h-3.02c-.58,0-1.13.32-1.64.97-.99,1.23-2.23,1.9-3.71,2.01h-9.13c-.73,0-1.2-.21-1.42-.62-.19-.41.07-.62.8-.62h5.17c.39-.11.87-.38,1.46-.81.46-.63.39-.94-.22-.94h-4.8c-.73,0-1.09-.32-1.09-.97v-10.54Zm27.79-12.26c-.02-.63-.33-.94-.91-.94h-21.97c-.61,0-.91.3-.91.91s.3.91.91.91h21.97c.61,0,.91-.29.91-.88Zm-1.46,14.34c0-.54-.3-.81-.91-.81h-19.06c-.61,0-.91.27-.91.81s.3.81.91.81h19.06c.61,0,.91-.27.91-.81Zm0,3.11c-.07-.54-.4-.81-.98-.81h-18.99c-.61,0-.91.26-.91.78s.3.81.91.81h19.06c.61,0,.91-.26.91-.78Zm.04,2.69c-.02-.26-.33-.39-.91-.39h-19.1c-.61,0-.91.29-.91.88s.3.88.91.88h18.19c1.19.15,1.79-.3,1.82-1.36Zm-13.13-16.68c0-.56-.29-.84-.87-.84h-5.67c-.61,0-.91.27-.91.81s.3.81.91.81h5.64c.61,0,.91-.26.91-.78Zm0,3.6c0-.54-.29-.81-.87-.81h-5.67c-.61,0-.91.26-.91.78s.3.81.91.81h5.64c.61,0,.91-.26.91-.78Zm12.8-3.6c0-.56-.29-.84-.87-.84h-5.56c-.61,0-.91.27-.91.81s.3.81.91.81h5.53c.61,0,.91-.26.91-.78Zm0,3.24c0-.3-.3-.45-.91-.45h-5.53c-.61,0-.91.26-.91.78s.3.81.91.81h4.69c1.07.22,1.65-.16,1.75-1.14Z"/><path d="m228.34,137.81c0-.69.34-1.04,1.02-1.04h3.09c.73,0,1.09.32,1.09.97v4.74c0,.54.3.81.91.81h2c.61,0,.91-.27.91-.81v-4.74c0-.65.36-.97,1.09-.97h3.02c.73,0,1.09.32,1.09.97v4.74c0,.54.3.81.91.81h7.89c.73,0,1.09.32,1.09.97v1.1c0,.65-.36.97-1.09.97h-2.33c-.58,0-1.08.32-1.49.97-.02.11-.09.22-.18.32-.34.65-.24.97.29.97h3.56c.73,0,1.09.32,1.09.97v.84c0,.65-.36.97-1.09.97h-12.04c-.61,0-.91.36-.91,1.07s.3,1.07.91,1.07h11.86c.73,0,1.09.32,1.09.97v.84c0,.65-.36.97-1.09.97h-11.86c-.61,0-.91.34-.91,1.01s.3,1.01.91,1.01h12.33c.73,0,1.09.32,1.09.97v1.1c0,.65-.36.97-1.09.97h-12.33c-.61,0-.91.27-.91.81v4.7c0,.65-.36.97-1.09.97h-3.46c-.73,0-1.09-.32-1.09-.97v-4.7c0-.54-.3-.81-.91-.81h-12.37c-.73,0-1.09-.32-1.09-.97v-1.1c0-.65.36-.97,1.09-.97h12.37c.61,0,.91-.33.91-1.01s-.3-1.01-.91-1.01h-11.78c-.73,0-1.09-.32-1.09-.97v-.84c0-.65.36-.97,1.09-.97h11.78c.61,0,.91-.36.91-1.07s-.3-1.07-.91-1.07h-12.08c-.73,0-1.09-.32-1.09-.97v-.84c0-.65.36-.97,1.09-.97h3.42c.63,0,.74-.35.33-1.04l-.15-.26c-.39-.65-.87-.97-1.45-.97h-2.29c-.73,0-1.09-.32-1.09-.97v-1.1c0-.65.36-.97,1.09-.97h7.93c.61,0,.91-.27.91-.81v-4.67Zm-7.2,26.21c.46-.71,1.04-1.07,1.75-1.07h3.49c.73,0,.89.32.47.97-.49.76-.92,1.51-1.31,2.27-.63.99-1.55,1.56-2.76,1.69h-2.69c-.73,0-1.18-.32-1.35-.97l-.25-.97c-.17-.74.16-1.1.98-1.1.61-.02,1.16-.29,1.67-.81Zm-2.26-25.89c-.22-.67.02-1.01.73-1.01h3.02c.73,0,1.26.32,1.6.97.41.74.97,1.04,1.67.91.31,0,.47.32.47.97v.84c0,.65-.36.97-1.09.97h-2.87c-1.53-.02-2.52-.69-2.98-2.01l-.55-1.65Zm22.7,9.18c.41-.65.3-.97-.33-.97h-11.64c-.99-.22-1.05.22-.18,1.3.39.65.87.97,1.45.97h9.02c.58,0,1.08-.32,1.49-.97.1-.11.16-.22.18-.32Zm2,16.48c-.41-.63-.25-.94.47-.94h3.82c.73,0,1.3.32,1.71.97.48.76,1.12,1.09,1.89,1.01.73,0,1.09.32,1.09.97v1.1c0,.65-.36.97-1.09.97h-2.47c-1.7-.11-3.09-.82-4.18-2.14l-1.24-1.95Zm3.16-26.15c.15-.41.58-.62,1.31-.62h3.09c.73,0,.92.32.58.97l-1.16,2.27c-.36.67-1.02,1.12-1.96,1.36-.56.17-1.44.23-2.66.16-.73,0-1.18-.32-1.35-.97l-.18-.75c-.17-.71-.1-1.07.22-1.07.9.15,1.6-.3,2.11-1.36Z"/><path class="cls-2" d="m32.4,138.16c0-.67.35-1.01,1.05-1.01h31.24c.73,0,1.09.32,1.09.97v27.25c-.1,1.47-1.02,2.3-2.76,2.5h-29.53c-.73,0-1.09-.32-1.09-.97v-28.75Zm28.08,3.47c0-.58-.28-.88-.84-.88h-21.02c-.61,0-.91.27-.91.81v21.9c0,.54.3.81.91.81h20.19c1.33.09,1.89-.43,1.67-1.56v-21.09Zm-10.8.97c-.02-.37.33-.55,1.05-.55h2.55c.73,0,1.11.16,1.16.49.07.41.44.62,1.09.62.7,0,.99-.22.87-.65-.1-.37.12-.55.65-.55s.88.18.98.55c.12.43.31.65.58.65.29,0,.44.32.44.97v1.1c0,.65-.36.97-1.09.97h-2.04c-.61,0-.85.35-.73,1.04l.95,5.26c.12.56.24.87.36.91.12-.06.25-.42.4-1.07l.44-3.67c.07-.67.39-1.01.95-1.01s.84.32.76.97l-.73,7.46c-.12.61-.49,1.09-1.09,1.46-.15.06-.18.27-.11.62.15.65.59.96,1.35.94.39,0,.58.32.58.97v1.62c0,.65-.36.97-1.09.97h-2.76c-.92-.11-1.64-.43-2.15-.97-.41-.67-.68-1.72-.8-3.15-.1-.54-.32-.81-.65-.81-.32,0-.55-.32-.69-.97l-.29-1.33c-.12-.67-.01-1.01.33-1.01.39,0,.53-.33.44-1.01l-.95-6.13c-.1-.73-.45-1.1-1.05-1.1h-8.88c-.73,0-1.09-.32-1.09-.97v-1.1c0-.65.36-.97,1.09-.97h8.33c.61,0,.88-.18.84-.55Zm-10.26,18.07c0-.69.34-1.04,1.02-1.04h7.89c.73,0,1.09.32,1.09.97v1.1c0,.65-.36.97-1.09.97h-7.82c-.73,0-1.09-.32-1.09-.97v-1.04Zm.04-11.55c0-.69.34-1.04,1.02-1.04h7.6c.73,0,1.09.32,1.09.97v6.29c-.02,1.45-.96,2.29-2.8,2.53h-5.82c-.73,0-1.09-.32-1.09-.97v-7.79Zm6.26,2.89c0-.58-.28-.88-.84-.88h-1.05c-.61,0-.91.27-.91.81v2.08c0,.54.34.81,1.02.81,1.31.24,1.9-.29,1.78-1.59v-1.23Z"/><path class="cls-2" d="m70.26,150.43c0-.69.34-1.04,1.02-1.04h31.57c.73,0,1.09.32,1.09.97v1.1c0,.65-.36.97-1.09.97h-26.22c-.61,0-.91.27-.91.81v12.17c0,1.38-.91,2.21-2.73,2.47h-2.33c-.73,0-1.15-.32-1.27-.97-.15-.54-.25-1.08-.33-1.62-.12-.65-.06-.98.18-1.01.87-.13,1.21-.64,1.02-1.52v-12.33Zm13.82-13.14c0-.45.34-.68,1.02-.68h3.38c.73,0,1.09.22,1.09.65,0,.45.3.68.91.68h12.37c.73,0,1.09.32,1.09.97v1.4c0,.65-.36.97-1.09.97-.7-.11-1.55.1-2.55.62l-5.82,2.34c-.49.24-.78.4-.87.49.05.28.48.39,1.31.32h7.67c.73,0,1.09.32,1.09.97v.71c0,.65-.36.97-1.09.97h-12.04c-.73-.06-1.46-.18-2.18-.36-.73-.17-1.21-.24-1.46-.19-.9.3-1.93.49-3.09.55h-12.26c-.73,0-1.18-.32-1.35-.97l-.18-.68c-.17-.67.08-1.01.76-1.01h7.17c.82-.11.85-.36.07-.75l-2.69-.84c-.73-.22-.73-.32,0-.32h7.53c.7-.11,1.55.04,2.55.45.34.17.82.09,1.45-.26l2.91-1.04c.7-.19,1.22-.42,1.56-.68.02-.09-.04-.17-.18-.26-.19-.04-.57-.06-1.13-.06h-19.9c-.73,0-1.09-.32-1.09-.97v-1.4c0-.65.36-.97,1.09-.97h13.02c.61,0,.91-.22.91-.65Zm-4.95,17.1c.22-.35.65-.52,1.31-.52h3.06c.73,0,.98.19.76.58-.22.43-.01.65.62.65h2.73c.61,0,.91-.21.91-.62,0-.39.36-.58,1.09-.58h3.46c.73,0,1.09.19,1.09.58,0,.41.3.62.91.62h7.24c.73,0,1.09.32,1.09.97v.84c0,.65-.36.97-1.09.97h-7.24c-.61,0-.91.34-.91,1.01s.3,1.01.91,1.01h6.91c.73,0,1.09.32,1.09.97v.84c0,.65-.36.97-1.09.97h-6.91c-.61,0-.91.36-.91,1.07s.3,1.07.91,1.07h7.53c.73,0,1.09.32,1.09.97v1.1c0,.65-.36.97-1.09.97h-23.86c-.73,0-1.09-.32-1.09-.97v-1.1c0-.65.36-.97,1.09-.97h8.87c.61,0,.91-.36.91-1.07s-.3-1.07-.91-1.07h-8.15c-.73,0-1.09-.32-1.09-.97v-.84c0-.65.36-.97,1.09-.97h8.15c.61,0,.91-.34.91-1.01s-.3-1.01-.91-1.01h-4.76c-.58,0-1.12.09-1.6.26-.51.13-1.26.17-2.25.13-.73,0-1.18-.32-1.35-.97l-.18-.75c-.17-.71-.13-1.07.11-1.07.7.02,1.22-.35,1.56-1.1Z"/><path class="cls-2" d="m124.42,137.45c0-.56.34-.84,1.02-.84h3.35c.73,0,1.09.26,1.09.78,0,.56.3.84.91.84h7.93c.73,0,1.09.32,1.09.97v3.28c0,.54.22.81.65.81.41,0,.62.32.62.97v1.1c0,.65-.21.97-.62.97-.44,0-.65.27-.65.81.05,1.06,0,1.82-.15,2.27-.41,1.21-1.3,1.83-2.66,1.85h-6.22c-.61,0-.91.27-.91.81v.65c0,.54.3.81.91.81h7.6c.73,0,1.09.32,1.09.97v.84c0,.65-.36.97-1.09.97h-7.6c-.61,0-.91.27-.91.81v.65c0,.54.3.81.91.81h8.18c.73,0,1.09.32,1.09.97v1.1c0,.65-.36.97-1.09.97h-8.18c-.61,0-.91.27-.91.81v.78c0,.54.3.81.91.81h9.2c.73,0,1.09.32,1.09.97v1.88c0,.65-.36.97-1.09.97h-23.79c-.78-.09-1.46-.3-2.04-.65-.58-.35-1.01-.4-1.27-.16-.41.43-.97.69-1.67.78l-3.64.03c-.73,0-1.09-.32-1.09-.97v-1.88c0-.65.13-.97.4-.97.99-.02,1.41-.55,1.24-1.59v-7.59c.29-.91-.18-1.42-1.42-1.52-.34,0-.51-.32-.51-.97v-1.88c0-.65.18-.97.55-.97,1.09.02,1.55-.51,1.38-1.59v-5.42c.19-.97-.28-1.47-1.42-1.49-.34,0-.51-.32-.51-.97v-1.91c0-.65.36-.97,1.09-.97h3.46c1.67.09,2.62.92,2.84,2.5v9.93c-.15.43-.46.89-.95,1.36-.56.32-.46.7.29,1.14.41.39.63.79.65,1.2v8.11c0,.52.16.99.47,1.43.7.76,1.42,1.17,2.15,1.23h7.31c.61,0,.91-.27.91-.81v-.78c0-.54-.3-.81-.91-.81h-6.18c-.73,0-1.09-.32-1.09-.97v-1.1c0-.65.36-.97,1.09-.97h6.18c.61,0,.91-.27.91-.81v-.65c0-.54-.3-.81-.91-.81h-5.6c-.73,0-1.09-.32-1.09-.97v-.84c0-.65.36-.97,1.09-.97h5.6c.61,0,.91-.27.91-.81v-.65c0-.54-.3-.81-.91-.81h-5.6c-.73,0-1.09-.32-1.09-.97v-.84c0-.65.36-.97,1.09-.97h5.6c.61,0,.91-.36.91-1.07s-.3-1.07-.91-1.07h-6.91c-.73,0-1.09-.32-1.09-.97v-1.1c0-.65.36-.97,1.09-.97h6.91c.61,0,.91-.27.91-.81v-.65c0-.54-.3-.81-.91-.81h-5.6c-.73,0-1.09-.32-1.09-.97v-.84c0-.65.36-.97,1.09-.97h5.6c.61,0,.91-.26.91-.78Zm10.48,4.38c0-.54-.3-.81-.91-.81h-3.2c-.61,0-.91.27-.91.81v.65c0,.54.3.81.91.81h3.2c.61,0,.91-.27.91-.81v-.65Zm0,5.22c0-.48-.29-.71-.87-.71h-3.24c-.61,0-.91.36-.91,1.07s.3,1.07.91,1.07c1.16.02,2.33,0,3.49-.06.53-.32.74-.78.62-1.36Z"/><path class="cls-2" d="m144.28,146.44c0-.65.38-.97,1.13-.97s1.13.32,1.13.97v16.19c0,.65-.08,1.19-.25,1.62-.36.67-.92,1.05-1.67,1.14-.36.04-.61-.31-.73-1.07-.15-.56-.25-1.14-.33-1.72-.15-.71-.16-1.08-.04-1.1.68-.3.93-.82.76-1.56v-13.5Zm4.22-8.79c0-.69.34-1.04,1.02-1.04h3.35c.73,0,1.09.32,1.09.97v.97c0,.54.3.81.91.81h2.8c.73,0,1.09.32,1.09.97v1.91c0,.65-.36.97-1.09.97h-2.8c-.61,0-.91.27-.91.81v22.87c0,.65-.36.97-1.09.97h-3.27c-.73,0-1.09-.32-1.09-.97v-22.87c0-.54-.3-.81-.91-.81h-2.84c-.73,0-1.09-.32-1.09-.97v-1.91c0-.65.36-.97,1.09-.97h2.84c.61,0,.91-.27.91-.81v-.91Zm7.42,8.79c0-.65.38-.97,1.13-.97s1.13.32,1.13.97v17.49c0,.65-.38.97-1.13.97s-1.13-.32-1.13-.97v-17.49Zm7.02.42c.07-.76.4-1.14.98-1.14h3.16c.73,0,1.06.32.98.97l-1.75,17.84c0,.78-.47,1.52-1.42,2.24-.9.41-1.94.56-3.13.45-.73,0-1.16-.32-1.31-.97-.15-.54-.25-1.08-.33-1.62-.17-.82-.15-1.23.07-1.23,1.09-.06,1.56-.68,1.42-1.85l1.31-14.7Zm8.26-8.92c0-.69.34-1.04,1.02-1.04h3.35c.73,0,1.09.32,1.09.97v.68c0,.54.29.81.87.81s.87.32.87.97v1.91c0,.65-.28.97-.84.97-.61,0-.91.27-.91.81v21.09c-.1,1.38-1.1,2.3-3.02,2.76h-3.16c-.73,0-1.15-.32-1.27-.97l-.29-1.62c-.15-.82-.02-1.23.36-1.23,1.5-.09,2.15-.68,1.93-1.78v-18.23c0-.54-.3-.81-.91-.81h-8.07c-.73,0-1.09-.32-1.09-.97v-1.91c0-.65.36-.97,1.09-.97h8.07c.61,0,.91-.27.91-.81v-.62Z"/><path class="cls-2" d="m195.53,137.09c0-.32.34-.49,1.02-.49h3.35c.73,0,1.09.14,1.09.42,0,.32.3.49.91.49h12.55c.73,0,1.09.32,1.09.97v2.98c0,.65-.28.97-.84.97-.61,0-.91.27-.91.81v1.3c0,.54.31.81.95.81s.95.34.95,1.01-.3,1.01-.91,1.01c-.65,0-.99.34-1.02,1.01-.36,1.64-1.35,2.43-2.95,2.37h-27.13c-.73,0-1.09-.32-1.09-.97v-1.59c0-.54-.3-.81-.91-.81s-.87-.33-.87-1.01.29-1.01.87-1.01.91-.27.91-.81v-1.3c0-.54-.29-.81-.87-.81s-.87-.32-.87-.97v-2.98c0-.65.36-.97,1.09-.97h12.69c.61,0,.91-.14.91-.42Zm-13.24,16.29c0-.67.35-1.01,1.05-1.01h29.64c.73,0,1.09.32,1.09.97v9.08c-.05,1.36-.87,2.17-2.47,2.43l-2.33.03c-.61,0-.82.17-.65.52.44.71,1.02,1.12,1.75,1.23h4.22c.73,0,1.09.21,1.09.62s-.36.62-1.09.62h-9.82c-1.48-.09-2.57-.78-3.27-2.08-.49-.61-1.02-.91-1.6-.91h-3.02c-.58,0-1.13.32-1.64.97-.99,1.23-2.23,1.9-3.71,2.01h-9.13c-.73,0-1.2-.21-1.42-.62-.19-.41.07-.62.8-.62h5.17c.39-.11.87-.38,1.46-.81.46-.63.39-.94-.22-.94h-4.8c-.73,0-1.09-.32-1.09-.97v-10.54Zm27.79-12.26c-.02-.63-.33-.94-.91-.94h-21.97c-.61,0-.91.3-.91.91s.3.91.91.91h21.97c.61,0,.91-.29.91-.88Zm-1.46,14.34c0-.54-.3-.81-.91-.81h-19.06c-.61,0-.91.27-.91.81s.3.81.91.81h19.06c.61,0,.91-.27.91-.81Zm0,3.11c-.07-.54-.4-.81-.98-.81h-18.99c-.61,0-.91.26-.91.78s.3.81.91.81h19.06c.61,0,.91-.26.91-.78Zm.04,2.69c-.02-.26-.33-.39-.91-.39h-19.1c-.61,0-.91.29-.91.88s.3.88.91.88h18.19c1.19.15,1.79-.3,1.82-1.36Zm-13.13-16.68c0-.56-.29-.84-.87-.84h-5.67c-.61,0-.91.27-.91.81s.3.81.91.81h5.64c.61,0,.91-.26.91-.78Zm0,3.6c0-.54-.29-.81-.87-.81h-5.67c-.61,0-.91.26-.91.78s.3.81.91.81h5.64c.61,0,.91-.26.91-.78Zm12.8-3.6c0-.56-.29-.84-.87-.84h-5.56c-.61,0-.91.27-.91.81s.3.81.91.81h5.53c.61,0,.91-.26.91-.78Zm0,3.24c0-.3-.3-.45-.91-.45h-5.53c-.61,0-.91.26-.91.78s.3.81.91.81h4.69c1.07.22,1.65-.16,1.75-1.14Z"/><path class="cls-2" d="m228.34,137.81c0-.69.34-1.04,1.02-1.04h3.09c.73,0,1.09.32,1.09.97v4.74c0,.54.3.81.91.81h2c.61,0,.91-.27.91-.81v-4.74c0-.65.36-.97,1.09-.97h3.02c.73,0,1.09.32,1.09.97v4.74c0,.54.3.81.91.81h7.89c.73,0,1.09.32,1.09.97v1.1c0,.65-.36.97-1.09.97h-2.33c-.58,0-1.08.32-1.49.97-.02.11-.09.22-.18.32-.34.65-.24.97.29.97h3.56c.73,0,1.09.32,1.09.97v.84c0,.65-.36.97-1.09.97h-12.04c-.61,0-.91.36-.91,1.07s.3,1.07.91,1.07h11.86c.73,0,1.09.32,1.09.97v.84c0,.65-.36.97-1.09.97h-11.86c-.61,0-.91.34-.91,1.01s.3,1.01.91,1.01h12.33c.73,0,1.09.32,1.09.97v1.1c0,.65-.36.97-1.09.97h-12.33c-.61,0-.91.27-.91.81v4.7c0,.65-.36.97-1.09.97h-3.46c-.73,0-1.09-.32-1.09-.97v-4.7c0-.54-.3-.81-.91-.81h-12.37c-.73,0-1.09-.32-1.09-.97v-1.1c0-.65.36-.97,1.09-.97h12.37c.61,0,.91-.33.91-1.01s-.3-1.01-.91-1.01h-11.78c-.73,0-1.09-.32-1.09-.97v-.84c0-.65.36-.97,1.09-.97h11.78c.61,0,.91-.36.91-1.07s-.3-1.07-.91-1.07h-12.08c-.73,0-1.09-.32-1.09-.97v-.84c0-.65.36-.97,1.09-.97h3.42c.63,0,.74-.35.33-1.04l-.15-.26c-.39-.65-.87-.97-1.45-.97h-2.29c-.73,0-1.09-.32-1.09-.97v-1.1c0-.65.36-.97,1.09-.97h7.93c.61,0,.91-.27.91-.81v-4.67Zm-7.2,26.21c.46-.71,1.04-1.07,1.75-1.07h3.49c.73,0,.89.32.47.97-.49.76-.92,1.51-1.31,2.27-.63.99-1.55,1.56-2.76,1.69h-2.69c-.73,0-1.18-.32-1.35-.97l-.25-.97c-.17-.74.16-1.1.98-1.1.61-.02,1.16-.29,1.67-.81Zm-2.26-25.89c-.22-.67.02-1.01.73-1.01h3.02c.73,0,1.26.32,1.6.97.41.74.97,1.04,1.67.91.31,0,.47.32.47.97v.84c0,.65-.36.97-1.09.97h-2.87c-1.53-.02-2.52-.69-2.98-2.01l-.55-1.65Zm22.7,9.18c.41-.65.3-.97-.33-.97h-11.64c-.99-.22-1.05.22-.18,1.3.39.65.87.97,1.45.97h9.02c.58,0,1.08-.32,1.49-.97.1-.11.16-.22.18-.32Zm2,16.48c-.41-.63-.25-.94.47-.94h3.82c.73,0,1.3.32,1.71.97.48.76,1.12,1.09,1.89,1.01.73,0,1.09.32,1.09.97v1.1c0,.65-.36.97-1.09.97h-2.47c-1.7-.11-3.09-.82-4.18-2.14l-1.24-1.95Zm3.16-26.15c.15-.41.58-.62,1.31-.62h3.09c.73,0,.92.32.58.97l-1.16,2.27c-.36.67-1.02,1.12-1.96,1.36-.56.17-1.44.23-2.66.16-.73,0-1.18-.32-1.35-.97l-.18-.75c-.17-.71-.1-1.07.22-1.07.9.15,1.6-.3,2.11-1.36Z"/></g></svg>