<?xml version="1.0" encoding="UTF-8"?><svg id="_圖層_2" xmlns="http://www.w3.org/2000/svg" viewBox="0 0 285 170"><defs><style>.cls-1{fill:none;}.cls-2{fill:#434659;}</style></defs><g id="_按鈕"><rect class="cls-1" width="285" height="170"/><path class="cls-2" d="m189.9,94.37c2.46,0,4.93.02,7.39-.01.61,0,.88.18.97.78.14.98.4,1.93.76,2.85.55,1.41,1.48,2.45,2.91,3.05,2.68,1.11,5.43,1.4,8.24.64,1.71-.46,3.1-1.41,3.99-2.99,1.02-1.8.34-4.03-1.53-4.98-2.81-1.42-5.8-2.31-8.82-3.15-3.9-1.08-7.86-2.01-11.53-3.8-1.75-.85-3.47-1.78-4.85-3.17-2.96-2.97-4.03-6.66-3.67-10.74.67-7.63,4.86-12.64,12-15.05,7.4-2.5,14.89-2.38,22.24.31,6.23,2.28,9.68,6.9,10.69,13.4.36,2.3.34,2.3-1.99,2.3-4.09,0-8.17,0-12.26.04-.65,0-.96-.11-1.09-.84-.33-1.75-1.36-3.07-2.91-3.92-2.96-1.61-5.97-1.63-8.99-.14-2.83,1.4-2.11,4.21-.48,5.54.92.75,2.05,1.07,3.13,1.46,3.74,1.36,7.65,2.09,11.47,3.14,2.83.77,5.57,1.75,8.16,3.16,4.3,2.35,6.88,5.87,7.32,10.8.56,6.38-1.1,11.9-6.5,15.83-2.19,1.6-4.62,2.8-7.24,3.49-7.47,1.95-14.96,2.13-22.36-.26-4.61-1.49-8.51-4.06-10.97-8.42-1.48-2.62-2.19-5.46-2.38-8.45-.04-.67.15-.9.85-.89,2.49.04,4.98.02,7.47.02,0,0,0,0,0,0Z"/><path class="cls-2" d="m133.69,57.6c7.59,0,15.18,0,22.77,0,1.19,0,1.18,0,1.18,1.19,0,3.88-.04,7.76-.01,11.64,0,.76-.21.99-.98.98-4.49-.02-8.98,0-13.47.02-1.11,0-1.1.01-1.13,1.15-.24,12.83.05,25.66-.14,38.49-.03,1.73-.02,1.73-1.76,1.73-4.58-.01-9.16-.04-13.73-.02-.85,0-1.05-.27-1.05-1.09-.01-13-.06-26.01-.1-39.01,0-1.45.09-1.26-1.25-1.26-4.43-.01-8.87-.03-13.3,0-.75,0-.98-.18-.98-.96.04-3.94.04-7.88,0-11.82,0-.8.21-1.03,1.01-1.03,7.65.03,15.3.02,22.94.02,0,0,0-.02,0-.02Z"/><path class="cls-2" d="m178.26,84.99c0,8.86-.01,17.72.02,26.59,0,.83-.21,1.07-1.06,1.06-4.78-.06-9.56-.03-14.34-.08-1.6-.02-1.31,0-1.31-1.32,0-17.55,0-35.1.02-52.65q0-1.19,1.16-1.19c4.81,0,9.62,0,14.43-.04.83,0,1.08.21,1.08,1.05-.03,8.86-.02,17.72-.02,26.59.01,0,.02,0,.03,0Z"/><path class="cls-2" d="m108.04,74.42c-2.43-7.58-7.36-13.04-14.81-16.06-5.46-2.21-11.18-2.68-16.91-1.66-8.4,1.5-14.93,5.9-18.87,13.6-3.94,7.71-4.57,15.84-2.23,24.15,1.82,6.47,5.41,11.75,11.14,15.43,4.71,3.03,9.98,4.04,15.82,4.11.66-.04,1.65-.08,2.63-.15.52-.03,1.04-.09,1.56-.15,8.93-1.09,15.67-5.57,19.86-13.48,4.38-8.26,4.65-17,1.83-25.79Zm-16.03,18.43c-1.28,3.34-3.24,6.09-6.82,7.27-5.29,1.74-10.61-.77-12.99-6.09-1.6-3.57-1.69-7.34-1.48-11.16.16-2.91.8-5.66,2.36-8.16,4.3-6.9,12.23-5.86,15.92-2.16,2.09,2.1,3.14,4.75,3.73,7.61.33,1.62.42,3.27.42,5.05-.07,2.51-.18,5.15-1.13,7.65Z"/></g></svg>