<?xml version="1.0" encoding="UTF-8"?><svg id="_圖層_2" xmlns="http://www.w3.org/2000/svg" viewBox="0 0 285 170"><defs><style>.cls-1{fill:none;}.cls-2{fill:#434659;}</style></defs><g id="_按鈕"><rect class="cls-1" width="285" height="170"/><path class="cls-2" d="m269.81,117.79c-3.51.02-7.02.02-10.53.06-.68,0-.97-.13-.97-.89.04-3.55.04-7.1,0-10.65,0-.78.22-1.01,1.02-1.03,2.61-.06,2.61-.09,2.61,2.47,0,2.1.05,4.2-.02,6.3-.03.99.25,1.32,1.26,1.27,1.7-.08,3.41-.01,5.12-.03.55,0,1.09-.01,1.52.4v2.1Z"/><path class="cls-2" d="m35.29,51.78c-.03.1-.05.2-.08.3-6.58,0-13.15,0-19.73.01-.02-.11-.04-.21-.06-.32,6.62,0,13.25,0,19.87,0Z"/><path class="cls-2" d="m15.49,52.1c6.58,0,13.15,0,19.73-.01.34.39.19.86.19,1.3.05,7.34.1,14.69.13,22.03.02,4.19,3.4,6.53,7.38,5.05,3.98-1.48,7.95-2.99,11.93-4.48.27-.1.52-.31,1.08-.09-13.48,14.09-26.9,28.1-40.34,42.15-.52-.64-.33-1.21-.33-1.73-.01-20.89-.01-41.78,0-62.68,0-.51-.26-1.1.23-1.55Z"/><path class="cls-2" d="m83.18,52.1c0,.48,0,.97,0,1.45,0,20.89-.01,41.79.03,62.68,0,1.4-.29,1.87-1.78,1.85-5.72-.09-11.43-.06-17.15-.01-1.06,0-1.34-.31-1.34-1.35.02-7.35-.02-14.69-.04-22.04-.01-4.35-3.49-6.67-7.59-5.09-3.64,1.4-7.28,2.77-10.93,4.12-.55.2-1.09.56-1.86.31,13.46-14.06,26.87-28.07,40.29-42.09.12.06.25.12.37.18Z"/><path class="cls-2" d="m264.78,73.69c.04-1.56,1.12-1.21,1.97-1.22,2.85-.02,2.85,0,2.13,2.73-.08.29-.15.58-.26.86-2.57,5.92-1.76,11.87-.17,17.82.09.33.14.68.18,1.03.12.95.93,2.36.26,2.74-.92.52-2.33.2-3.52.21-.5,0-.63-.34-.7-.79-.16-.97-.39-1.94-.65-3.19-.2.53-.3.75-.37.98q-.89,3.01-4.12,3.01c-4.26,0-8.53,0-12.79,0-5.07,0-10.15-.03-15.22.02-1.1.01-1.67-.27-1.4-1.41.26-1.09-.78-2.5.82-3.29.15-.07.04-.76-.02-1.15-.34-1.96-.69-3.92-1.08-5.87-.17-.85.08-1.13.98-1.15,2.83-.06,2.83-.1,3.84,3.22,0-1.69,0-3.38,0-5.07,0-.39-.22-.51-.58-.5-.35.01-.7,0-1.05,0-3.02,0-3.5-.61-2.94-3.63.1-.52.35-.65.8-.65.8,0,1.62-.08,2.41.02,1.19.16,1.45-.34,1.39-1.42-.04-.79-.26-.98-1.04-.99-3.05-.05-3.03-.08-2.91-3.07.03-.74.2-1.07,1.02-1.06,3.46.04,6.92.03,10.38,0,.77,0,1.03.22,1.07,1.01.16,3.08.19,3.1-2.85,3.12-.86,0-1.25.15-1.25,1.14,0,.99.29,1.4,1.29,1.26.15-.02.3,0,.45,0,3.32,0,3.33.04,2.99,3.44-.06.64-.28.91-.92.84-.05,0-.1,0-.15,0-1.17.14-2.97-.57-3.4.29-.66,1.36-.27,3.15,0,4.77.65-.76.59-1.71.64-2.58.06-.99.37-1.37,1.43-1.36,5.48.05,10.97.04,16.45,0,.91,0,1.2.24,1.2,1.17.02,2.84.06,2.81-2.8,2.86-.62.01-1.77-.4-1.76.42.02.79,1.17.35,1.8.37,2.73.06,2.66.03,2.75,2.78.04,1.22-.26,1.73-1.55,1.57-.84-.1-1.7-.02-2.56,0-.27,0-.51.11-.52.41-.02.34.25.37.51.39,1.38.11,2.78-.19,4.17.19.39.11.4-.36.47-.63.81-3.03,1.72-6.03,2.38-9.09.33-1.51-.46-3.01-.7-4.52-.37-2.31-.98-4.58-1.3-6.89-.16-1.16-.68-1.31-1.67-1.29-3.21.06-6.42-.06-9.63.04-2.91.09-5.79-.4-8.69-.27-.71.03-.97-.29-1.13-.88-.37-1.34-.79-2.67-1.16-4.01-.19-.7-.51-1.11-1.33-1.14-.89-.02-.91.62-1.1,1.16-.16.47-.27.96-.41,1.44-1.08,3.68-1.08,3.65-4.93,3.44-.81-.04-.92-.3-.72-.99.89-2.96,1.77-5.91,2.62-8.88.18-.64.49-.9,1.15-.89,1.91.03,3.81,0,5.72.01,1.51,0,2.42.75,2.81,2.2.53,1.93,1.1,3.85,1.85,5.86.04-1.58,1.02-1.53,2.05-1.48.95.05,1.91.03,2.86,0,.35,0,.94.2.92-.41-.02-.46-.55-.29-.86-.3-1.05-.02-2.11-.05-3.16,0-.75.04-1.04-.17-1.07-.99-.12-2.96-.15-2.96,2.84-2.96.45,0,.91-.03,1.35,0,.66.05,1.1-.12.99-.89-.13-.89.29-1.14,1.12-1.07.7.06,1.41.05,2.11,0,.91-.06,1.61,0,1.44,1.21-.08.58.28.77.84.75.65-.03,1.31-.03,1.96,0,.75.04,1.33,0,1.03-1.03-.22-.75.18-.91.88-.94,3.3-.17,3.3-.19,3.91,2.96.2,1.03.4,2.06.6,3.08.06.31.19.61.59.49.33-.1.21-.38.16-.62-.09-.54-.17-1.09-.23-1.63-.07-.75-.72-1.93-.02-2.16,1.13-.37,2.47-.13,3.71-.07.33.02.32.46.37.75.46,2.45.9,4.91,1.39,7.35.14.72-.13.88-.77.86-.8-.03-1.61,0-2.41,0q-1.94,0-1.21,2.11Zm-20.31,12.42c-.13.07-.25.13-.38.2-.28,2.23-.63,4.45-.79,6.68-.03.43.69.9,1.07,1.36,1.36-1.14,2.97-.28,4.44-.55.26-.05.52-.08.47-.42-.04-.29-.28-.39-.55-.39-.75,0-1.51-.08-2.25.01-1.46.19-2.03-.22-1.92-1.83.16-2.49.04-2.46,2.58-2.52.72-.02,2.03.48,2.03-.4,0-.81-1.34-.29-2.07-.39-1.12-.16-2.74.68-2.63-1.73Zm11.99-19.65s0,.01,0,.02c-.65,0-1.3,0-1.95,0-.19,0-.43-.01-.46.26-.03.32.18.44.46.44,1.25,0,2.5.01,3.76,0,.32,0,.61-.12.53-.53-.09-.48-.41-.23-.68-.21-.55.03-1.1,0-1.65,0Z"/><path class="cls-2" d="m128.5,88.45c2.21,2.96,4.22,5.66,6.46,8.66-2.45,0-4.61.02-6.77-.01-.57,0-.77-.6-1.06-.98-1.69-2.23-3.35-4.49-5.03-6.72-.32-.42-.56-.93-1.24-.95-.81-.03-1.31.04-1.28,1.09.08,2.35-.02,4.7.04,7.05.03.96-.23,1.36-1.24,1.31-1.4-.07-2.81-.06-4.21,0-.95.04-1.19-.34-1.16-1.23.06-2.25.04-4.5,0-6.75,0-.49.35-1.21-.42-1.41-.74-.19-1.44-.08-1.97.66-1.64,2.27-3.38,4.47-4.99,6.76-.65.92-1.33,1.31-2.47,1.24-1.73-.11-3.46-.03-5.52-.03,2.2-2.97,4.21-5.67,6.45-8.68-1.9,0-3.52-.05-5.14.02-.93.04-1.33-.16-1.32-1.21.05-5.45.05-10.9,0-16.35,0-1.01.32-1.32,1.29-1.26,1.2.07,2.41.1,3.61,0,1.33-.12,1.99.23,1.74,1.68-.09.52-.01,1.07-.01,2,1.07-1.01,1.95-1.71,2.66-2.56.87-1.05,1.9-1.35,3.19-1.15.54.08,1.1,0,1.65.06.95.1,1.29-.21,1.32-1.24.03-1.16-.55-1.14-1.37-1.14-4.57.02-9.13-.02-13.7.03-1.07.01-1.5-.2-1.48-1.38.03-3.4-.02-3.4,3.33-3.4,3.91,0,7.83-.04,11.74.02,1.07.02,1.65-.19,1.44-1.38-.14-.78.21-1.06,1-1.03,1.5.05,3.01.04,4.51,0,.74-.02,1.21.16,1.05.99-.25,1.33.49,1.42,1.55,1.41,4.52-.04,9.03.02,13.55-.04,1.08-.01,1.34.33,1.34,1.36,0,3.43.03,3.43-3.46,3.43-3.91,0-7.83.02-11.74-.01-.82,0-1.28.07-1.26,1.1.01.97.27,1.3,1.27,1.28,3.51-.07,7.02-.04,10.53-.1,2.87-.05,3.58.59,3.58,3.45,0,4.7-.03,9.4.02,14.1.01,1.06-.32,1.39-1.36,1.34-1.58-.08-3.17-.02-5.1-.02Zm-19.88-11.77c1.15,0,2.3-.06,3.45.02,1.02.07.96-.52.98-1.21.01-.73-.04-1.22-1.01-1.19-2.15.06-4.3.04-6.44,0-.84-.01-1.37.01-1.38,1.15,0,1.15.46,1.31,1.41,1.25.99-.07,2-.02,3-.01Zm15.46-2.37c-1.2,0-2.4.05-3.59-.01-1.1-.05-.84.69-.88,1.29-.05.68.03,1.12.92,1.1,2.29-.05,4.59-.07,6.88,0,1.03.03.94-.54.96-1.21.01-.72,0-1.26-.99-1.19-1.09.08-2.19.02-3.29.02Zm-15.46,9.51c1.2,0,2.39-.03,3.59,0,.98.03.84-.64.81-1.22-.02-.53.27-1.26-.76-1.24-2.39.03-4.79.01-7.18,0-.52,0-.81.12-.85.74-.07,1.14.02,1.95,1.54,1.73.93-.14,1.89-.02,2.84-.03Zm15.48-2.45c-1.15,0-2.31.05-3.46-.02-.93-.06-1.08.37-1.05,1.16.03.74-.06,1.36,1.05,1.32,2.1-.08,4.21-.06,6.32,0,.95.02,1.43-.09,1.44-1.25,0-1.2-.52-1.28-1.44-1.22-.95.06-1.91.01-2.86.01Z"/><path class="cls-2" d="m161.79,96.01c.36-.69.22-1.24.22-1.77,0-10.15.03-20.3-.02-30.45,0-1.25.32-1.7,1.58-1.55,1.23.14,2.8-.49,3.65.23.87.73.08,2.34.41,3.69,1.21-.85,1.95-2.03,2.86-3.03.55-.6,1.06-.93,1.91-.9,1.75.07,3.51,0,5.27.02,1.88.02,2.86.98,2.86,2.87.01,10.1,0,20.2.03,30.3,0,1.05-.39,1.22-1.31,1.21-5.27-.03-10.54.05-15.8-.05-1.83-.04-3.66.05-5.48.07-1.12.01-1.44-.37-1.56-1.41-.6-5.05-1.28-10.09-1.93-15.13-.04-.33.03-.69-.35-1.06-.41.5-.25,1.05-.25,1.53,0,5.3-.01,10.6.07,15.9.02,1.17-.4,1.41-1.48,1.41-4.09,0-4.09.03-4.09-3.99,0-4.6,0-9.2,0-13.8,0-.42.13-.87-.37-1.61-.34,2.51-.66,4.68-.93,6.85-.44,3.42-.88,6.84-1.25,10.26-.09.78-.38.98-1.11,1.02-4.13.23-4.07.25-3.5-3.88.76-5.54,1.41-11.09,2.14-16.63.12-.94-.02-1.46-1.1-1.27-1.04.18-1.24-.32-1.24-1.27-.01-3.73-.05-3.73,3.66-3.73.7,0,1.42-.08,2.1.02,1.34.19,1.73-.31,1.66-1.64-.11-2.16-.03-2.16-2.26-2.04-.7.04-1.4.08-2.1.08-.91,0-2.35.72-2.62-.09-.44-1.3-.16-2.86-.09-4.3.02-.44.58-.3.89-.32,5.8-.39,11.6-.76,17.4-1.15.63-.04.85.13.91.8.34,3.92.36,3.92-3.53,4.28-.25.02-.5.03-.75.05-2.32.17-2.2.18-2.38,2.48-.12,1.57.36,1.99,1.86,1.85,1.44-.14,2.91,0,4.36-.04.77-.02,1.12.21,1.06,1.01-.05.75-.06,1.5,0,2.25.11,1.22-.08,2.07-1.64,1.77-.57-.11-.77.19-.69.8.88,6.63,1.73,13.26,2.6,19.9.01.11.16.21.36.44Zm5.79-16.47c0,3.59.03,7.19-.02,10.78-.01.96.13,1.46,1.28,1.39,1.7-.1,3.4-.08,5.1,0,.88.04,1.08-.28,1.08-1.11-.03-7.43-.03-14.87,0-22.3,0-.78-.22-1.03-1.01-1.01-1.7.06-3.41.08-5.1,0-1.04-.05-1.37.27-1.35,1.33.06,3.64.02,7.28.02,10.93Z"/><path class="cls-2" d="m195.33,90.8c.43-1.75.96-3.49,1.27-5.27.21-1.24.72-1.6,1.97-1.55,2.49.11,2.5.03,2.5-2.5,0-2.2-.03-4.4.01-6.6.02-.89-.12-1.34-1.21-1.33-3.29,0-3.28-.05-4.45-3.1-.54-1.4-1.11-2.78-1.66-4.17-.17-.44-.37-.9-.89-.87-.49.03-.53.55-.65.91-.7,2.03-1.42,4.05-2.04,6.1-.26.86-.64,1.17-1.57,1.17-3.76,0-3.74.05-2.51-3.48.97-2.78,1.89-5.57,2.79-8.37.25-.78.58-1.15,1.46-1.08,1.1.09,2.21.07,3.31.01,2.1-.11,3.41.93,4.19,2.76.9,2.11,1.76,4.24,2.64,6.36.08.2.04.54.62.47,0-2.64.08-5.3-.03-7.96-.06-1.33.3-1.69,1.64-1.64,3.03.11,3.03.03,3.1,3,0,.18.02.36.04.76,1.11-.9,1.7-1.93,2.38-2.87.46-.64.94-.9,1.73-.89,4.16.04,8.33,0,12.49.02,1.73,0,2.66.84,2.66,2.54.03,10.65.03,21.3,0,31.96,0,1.68-.94,2.52-2.65,2.59-.55.02-1.1,0-1.66,0-4.17,0-4.15,0-5.82-3.8-.37-.83-.19-1.07.67-1.04,1.15.03,2.31-.06,3.46.03,1.11.09,1.31-.36,1.31-1.37-.04-8.15-.05-16.3,0-24.45,0-1.38-.48-1.85-1.85-1.83-3.76.06-7.53.06-11.29,0-1.16-.02-1.53.26-1.53,1.49.06,9.6,0,19.2.07,28.8,0,1.37-.38,1.65-1.68,1.62-3.44-.09-3.36-.02-3.17-3.52.14-2.65.03-5.31-.33-8-.55,2.3-1.09,4.6-1.63,6.9-.04.18-.07.5.02.55,1.78,1.02.51,2.68.86,4,.16.61-.36.71-.86.71-4.16,0-8.33,0-12.49,0-.3,0-.61.03-.81-.27-.18-.27-.11-3.99.16-4.1.77-.33.49-.85.38-1.37-.43-1.99-.83-3.99-1.31-5.97-.23-.97.08-1.18,1.03-1.18,2.9.02,2.86-.01,3.49,2.8.2.9.18,1.88.87,2.95.42-1.26.23-2.33.23-3.35,0-1.29.55-2.9-.23-3.77-.74-.82-2.38-.25-3.61-.24-.96,0-1.17-.34-1.17-1.22-.02-2.73-.05-2.73,2.65-2.73.6,0,1.2,0,1.81-.01.24,0,.53-.06.52-.4,0-.34-.31-.36-.54-.37-.95-.02-1.91-.04-2.86,0-.73.03-1.04-.15-1.07-.98-.1-3.16-.14-3.16,3.06-3.16,2.96,0,5.92.04,8.88-.02,1.02-.02,1.27.3,1.27,1.28,0,2.88.03,2.86-2.8,2.9-.54,0-1.56-.3-1.54.33.03.88,1.05.27,1.61.43.19.05.4,0,.6,0,3.05,0,3.03,0,2.76,3.06-.06.65-.27.88-.9.86-1.1-.03-2.21,0-3.31,0-.49,0-.9.02-.9.69.02,2.23,0,4.46,0,6.69.16.03.32.05.49.08Z"/><path class="cls-2" d="m215.34,87.42c.64-.51.44-1.05.44-1.52.02-1.65,0-3.3,0-4.95,0-2.4.99-3.11,3.32-2.48.58.16.49.54.49.91,0,3.95-.02,7.9.02,11.85,0,.8-.35.88-1,.87-3.66-.02-7.32-.03-10.99,0-.88,0-1.1-.31-1.09-1.13.04-3.75.05-7.5,0-11.25-.01-.98.27-1.28,1.27-1.28,2.63.02,2.63-.03,2.63,2.6,0,2.07,0,4.14,0,6.24.88-.12.65-.63.65-.96.02-2.65-.03-5.3.03-7.95.02-.93-.28-1.17-1.19-1.18-3.44-.03-3.42-.07-3.38-3.48,0-.82.09-1.39,1.12-1.25.75.1.81-.21.57-.87-.39-1.07-.64-2.2-.99-3.29-.23-.72-.06-.93.72-.97,2.84-.12,2.84-.15,3.66,2.57.19.62.38,1.24.54,1.87.13.51.4.73.95.72.55,0,.82-.23.96-.73.28-1.01.66-2,.85-3.03.21-1.16.79-1.61,1.95-1.44.39.06.81.05,1.2,0,.97-.12,1.11.3.84,1.12-.34,1.04-.61,2.11-.95,3.15-.2.59-.22,1.02.57.9,1.07-.16,1.08.45,1.09,1.24.03,3.42.05,3.43-3.33,3.51-.6.02-1.22-.11-1.21.85.03,2.9.01,5.8.03,8.7,0,.18.12.35.24.65Z"/><path class="cls-2" d="m249.26,75.33c.97-.58,1.64-1.37,2.3-2.14.65-.76,1.35-1.07,2.34-1,.94.07,1.9,0,2.85.02,1.62.04,2.31.68,2.33,2.24.03,2.39-.03,4.79.03,7.18.02.9-.33,1.07-1.14,1.06-4.05-.03-8.11-.04-12.16,0-.87,0-1.25-.18-1.23-1.14.06-2.74.05-5.49,0-8.23-.01-.82.19-1.19,1.08-1.13,1.05.07,2.28-.3,3.1.14.94.51.06,1.92.5,2.99Zm2.54,1.12c-.55,0-1.1.03-1.65,0-.76-.06-1.07.21-1.06,1.01,0,.85.41.99,1.12.97,1.1-.03,2.2-.02,3.3,0,.59,0,1.08.03,1.07-.81,0-.8-.26-1.22-1.13-1.17-.55.04-1.1,0-1.65,0Z"/><path class="cls-2" d="m155.72,114.42c0,.65.05,1.3-.02,1.95-.05.49.34,1.34-.35,1.39-.74.06-1.83.7-2.3-.62-.25-.72-.63-.16-.91,0-2.23,1.36-4.61,1.29-6.95.52-2.89-.96-4.5-3.64-4.2-6.67.28-2.9,2.53-5.32,5.44-5.78,2.41-.38,4.79-.4,6.98.93.96.59,1.72,1.36,2.06,2.47.15.49.24.94-.48.89-1.26-.09-2.59.43-3.58-1.08-.74-1.14-3.33-1.2-4.76-.44-1.46.77-2.27,2.54-1.97,4.35.32,1.9,1.43,3.02,3.37,3.25,1.45.17,2.8-.08,3.82-1.26.19-.22.41-.47.26-.79-.13-.28-.44-.17-.67-.18-.4-.02-.8-.03-1.2,0-.91.08-1.47-.03-1.47-1.23,0-1.19.59-1.27,1.49-1.25,1.35.03,2.71.09,4.06-.01,1.18-.09,1.5.38,1.38,1.46-.08.69-.01,1.4-.01,2.1Z"/><path class="cls-2" d="m129.59,110.18c0,2.18-.08,4.37.03,6.55.07,1.34-.74,1.19-1.51,1.1-.74-.09-1.91.6-1.87-1.07.07-3.44.05-6.89,0-10.34-.01-.86.27-1.06,1.1-1.14,1.74-.16,2.99.22,3.96,1.86,1.18,2,2.7,3.8,4.39,5.66,0-1.95-.03-3.9.02-5.85.01-.54-.4-1.37.4-1.56.9-.21,1.89-.25,2.81.05.4.13.24.61.24.94,0,3.45-.03,6.89.03,10.34.02.98-.4,1.06-1.23,1.16-1.7.21-2.76-.39-3.68-1.82-1.34-2.08-2.91-4.02-4.38-6.03-.1.05-.21.09-.31.14Z"/><path class="cls-2" d="m187.16,118.18c-5.18-.02-8.01-2.56-7.96-6.79.04-3.31,2.19-5.69,5.48-6.27,1.82-.32,3.6-.29,5.34.25,3.09.95,4.57,3.45,4.3,7.01-.22,2.88-2.31,5.11-5.33,5.63-.74.13-1.49.13-1.83.16Zm-.29-2.56c2.44-.03,4.02-1.66,3.96-4.12-.05-2.47-1.61-3.99-4.09-3.97-2.49.02-3.96,1.56-3.93,4.09.03,2.5,1.57,4.02,4.06,3.99Z"/><path class="cls-2" d="m229.81,111.54c0-1.7.04-3.4-.02-5.1-.03-.83.21-1.16,1.09-1.15,3.21.04,6.42.05,9.63,0,1.14-.02.98.64,1.02,1.35.04.82-.09,1.3-1.12,1.26-2-.08-4.01.01-6.02-.04-.79-.02-1.04.23-1.02,1.02.02.75.07,1.21,1.03,1.17,1.8-.07,3.61.02,5.42-.04.97-.03,1.05.47,1.02,1.21-.03.69.16,1.43-.99,1.39-1.8-.06-3.62.05-5.42-.04-1.11-.05-1.06.56-1.04,1.3.02.74-.18,1.5,1.06,1.45,2.1-.08,4.22.06,6.32-.05,1.26-.07,1.03.66,1.09,1.4.07.87-.14,1.22-1.13,1.2-3.26-.07-6.52-.06-9.78,0-.96.02-1.19-.33-1.16-1.22.06-1.7.02-3.4.02-5.1Z"/><path class="cls-2" d="m208.24,118.14c-1.57,0-3.11-.14-4.51-.93-.35-.2-.71-.4-.98-.68-.66-.65-1.1-1.44-1.02-2.4.04-.41.44-.42.71-.35.97.24,2.16-.64,2.93.74.72,1.29,4.17,1.61,5.34.62.74-.63.54-1.45-.56-1.74-1.59-.42-3.23-.65-4.84-1.01-2.51-.55-3.47-1.68-3.31-3.85.13-1.69,1.26-2.58,2.7-3.07,2.29-.78,4.62-.77,6.89.18.46.19.89.47,1.28.77.8.61,1.2,1.46,1.28,2.45.03.39-.28.56-.59.49-1.04-.26-2.35.72-3.14-.87-.6-1.2-3.6-1.41-4.66-.5-.7.6-.54,1.37.45,1.65,1.3.37,2.63.59,3.95.86.29.06.6.09.89.15,2.43.53,3.6,1.62,3.62,3.36.03,1.82-1.31,3.24-3.59,3.85-.93.25-1.88.28-2.83.28Z"/><path class="cls-2" d="m244.14,111.59c0-1.75.03-3.5-.01-5.24-.02-.77.21-1.06,1.01-1.06,3.21.03,6.41.05,9.62,0,1.16-.02.96.7.98,1.38.03.71.03,1.26-.98,1.22-2-.07-4.01.01-6.01-.04-.81-.02-1.17.16-1.15,1.06.02.82.21,1.15,1.1,1.12,1.8-.06,3.61.04,5.41-.04,1.16-.05.98.67.99,1.36.01.68.07,1.29-.96,1.24-1.65-.07-3.31,0-4.96-.02-.88-.01-1.63-.12-1.6,1.25.03,1.2.36,1.55,1.54,1.5,1.95-.09,3.91.05,5.86-.05,1.13-.06,1.19.48,1.19,1.34,0,.82-.09,1.27-1.12,1.25-3.31-.07-6.61-.05-9.92,0-.8.01-1.03-.25-1.01-1.02.05-1.75.02-3.5.02-5.24Z"/><path class="cls-2" d="m164.36,111.61c0-1.7.04-3.39-.02-5.09-.03-.87.17-1.34,1.15-1.23.44.05.9.05,1.35,0,.9-.1,1.13.32,1.07,1.13-.05.79.05,1.6-.02,2.39-.08.96.34,1.26,1.22,1.14.1-.01.2,0,.3,0,1.29-.03,2.91.4,3.79-.22.88-.61.22-2.32.28-3.54.03-.62.2-.85.85-.91,2.78-.25,2.78-.28,2.78,2.42,0,2.94-.05,5.89.03,8.83.03,1.06-.3,1.45-1.34,1.31-.44-.06-.9-.04-1.35,0-.72.06-.98-.22-.95-.94.05-1.1-.06-2.2.03-3.29.09-1.03-.33-1.28-1.28-1.22-1.05.07-2.1.07-3.15,0-.9-.06-1.28.21-1.21,1.16.08,1.04-.04,2.1.04,3.14.07.95-.3,1.27-1.21,1.15-.34-.05-.71-.05-1.05,0-1.05.16-1.4-.23-1.34-1.3.09-1.64.02-3.29.02-4.94Z"/><path class="cls-2" d="m123.57,110.08c0,1.2.04,2.4,0,3.6-.08,2.1-1.14,3.51-3.15,4.07-2.06.58-4.17.61-6.24.03-2.15-.61-3.24-2.02-3.31-4.26-.06-2.35.01-4.7-.06-7.05-.03-.95.32-1.17,1.21-1.17,2.48-.02,2.48-.06,2.48,2.4,0,1.85-.03,3.7.01,5.55.04,1.64.85,2.34,2.62,2.38,1.89.04,2.75-.62,2.79-2.32.06-2.2.09-4.4,0-6.6-.05-1.15.33-1.55,1.44-1.4.39.05.8.04,1.2,0,.79-.08,1.07.24,1.04,1.03-.05,1.25-.01,2.5-.01,3.75h0Z"/><path class="cls-2" d="m102.98,105.31c1.81,0,3.61.05,5.42-.02,1.14-.04.97.68.99,1.38.02.71,0,1.34-.99,1.21-.1-.01-.2,0-.3,0q-3.35.05-3.35,3.46c0,1.8-.03,3.6.01,5.4.02.83-.22,1.12-1.1,1.14-2.5.04-2.5.08-2.5-2.35,0-2.15-.04-4.3.02-6.45.02-.88-.18-1.31-1.15-1.2-.69.08-1.41-.06-2.1.03-1.22.16-1.57-.31-1.51-1.5.04-.87.32-1.12,1.15-1.1,1.8.04,3.61.01,5.42.01Z"/><path class="cls-2" d="m221.94,105.31c1.75,0,3.51.06,5.26-.02,1.06-.05,1.12.48,1.08,1.28-.03.72.1,1.35-1.03,1.34-1.21-.01-2.88-.61-3.54.31-.6.84-.18,2.4-.19,3.65-.01,1.55-.06,3.1.02,4.65.05.99-.14,1.4-1.27,1.36-2.26-.08-2.27,0-2.26-2.33,0-2.2-.04-4.4.02-6.6.02-.86-.25-1.16-1.1-1.08-.7.06-1.41-.03-2.1.02-.97.07-1.55,0-1.56-1.29,0-1.29.6-1.32,1.56-1.3,1.7.04,3.41.01,5.11.01Z"/></g></svg>