<?xml version="1.0" encoding="UTF-8"?><svg id="_圖層_2" xmlns="http://www.w3.org/2000/svg" xmlns:xlink="http://www.w3.org/1999/xlink" viewBox="0 0 888.67 47.6"><defs><style>.cls-1{fill:#efd5c4;}.cls-2{filter:url(#drop-shadow-1);}</style><filter id="drop-shadow-1" filterUnits="userSpaceOnUse"><feOffset dx="0" dy="0"/><feGaussianBlur result="blur" stdDeviation="3.43"/><feFlood flood-color="#972b00" flood-opacity="1"/><feComposite in2="blur" operator="in"/><feComposite in="SourceGraphic"/></filter></defs><g id="_圖"><g class="cls-2"><path class="cls-1" d="m7.65,36.37c-4.54-1.25-7.65-5.38-7.65-12.57C0,13.25,6.09,3.08,16.17,3.08c6.37,0,10.83,4.69,10.83,12.9,0,9.99-5.12,19.21-13.83,20.62.05,4.86,2.27,7.26,6.56,7.26,1.98,0,3.32-.35,4.82-1.09l.71,1.74c-1.82,1.61-4.23,3.04-7.63,3.04-6.5,0-10.17-3.94-9.98-11.18Zm12.83-22.43c0-5.52-1.23-8.51-4.59-8.51-5.38,0-9.41,10.38-9.41,20.32,0,5.65,1.38,8.69,4.67,8.69,5.38,0,9.33-10.6,9.33-20.5Z"/><path class="cls-1" d="m49.86,32.66l.09-1.06c-2.81,3.21-5.65,5.06-8.31,5.06-2.1,0-3.68-1.43-3.68-4,0-1.43.32-3,.59-4.56l2.34-11.27-3.17-.63.28-1.52,9.01-2.69.71.69-2.93,14.07c-.28,1.35-.51,2.56-.51,3.47,0,1.26.55,1.74,1.42,1.74,1.23,0,2.67-.75,4.56-2.55l1.48-7.75c.55-2.65.95-5.08,1.3-7.73l5.77-1.95.75.69-3.32,16.72c-.16.91-.28,1.61-.28,2.08,0,.65.28.91.75.91.75,0,1.66-.91,3.08-2.87l1.19.83c-1.66,3.13-4.27,6.3-7.83,6.3-1.9,0-3.32-1.48-3.32-4Z"/><path class="cls-1" d="m82.55,32.53c0-.33.02-.64.08-1.03-2.22,2.88-4.93,5.16-7.55,5.16-2.41,0-4.67-1.78-4.67-6.56,0-8.29,8.1-18.07,14.51-18.07,1.37,0,2.62.54,3.65,1.5l2.96-1.64.75.56-3.44,17.02c-.16.87-.32,1.52-.32,2,0,.65.28.91.75.91.79,0,1.82-1,3.16-2.91l1.15.87c-1.5,3-4.31,6.3-7.55,6.3-2.02,0-3.44-1.52-3.48-4.13Zm2.89-16.43c-.68-.44-1.42-.73-2.18-.73-1.11,0-2.25.69-3.32,1.95-2.06,2.35-3.36,7.25-3.36,10.64,0,2.78.75,4.04,2.25,4.04,1.14,0,2.46-.85,4.03-2.57l2.58-13.34Z"/><path class="cls-1" d="m103.31,33.48c0-1.26.28-2.95.75-5.34l2.57-13.42c.54-3.06,1.14-6.12,1.57-9.18l-2.91-.55.24-1.56,9.01-2.69.67.61-5.42,28.01c-.16.91-.32,1.65-.32,2.13,0,.65.36.91.83.91.63,0,1.66-.91,3.08-2.87l1.15.83c-1.7,3.17-4.35,6.3-7.99,6.3-1.98,0-3.24-1.13-3.24-3.17Z"/><path class="cls-1" d="m125.49,28.97l2.32-12.08-3.11-.68.28-1.52,9.01-2.69.67.65-3.24,16.72c-.16.91-.28,1.65-.28,2.13,0,.65.28.91.67.91.71,0,1.74-.91,3.16-2.87l1.15.83c-1.66,3.17-4.35,6.3-7.95,6.3-2.02,0-3.32-1.13-3.32-3.13,0-1.26.4-3.17.63-4.56Zm4.31-24.62c0-2.39,1.74-4.04,3.68-4.04,1.78,0,3.04,1.39,3.04,3.21,0,2.39-1.7,4.08-3.68,4.08-1.58,0-3.04-1.26-3.04-3.26Z"/><path class="cls-1" d="m146.37,33.44c0-1.3.36-3.08.63-4.65l2.7-13.68h-3.33l.32-1.91,3.89-.56,3.38-6.74h3.4l-1.29,6.86h4.58l-.47,2.56-4.57-.09-2.67,14.12c-.16.96-.32,1.65-.32,2.13,0,.65.36.91.75.91.75,0,1.74-.91,3.16-2.87l1.15.83c-1.66,3.17-4.39,6.3-8.03,6.3-1.98,0-3.28-1.13-3.28-3.21Z"/><path class="cls-1" d="m163.17,43.51c.28-1.65,1.54-2.61,3-2.61,1.62,0,2.61,1,4.03,3.04l.08.1c1.3-1.07,2.98-2.72,4.22-4.19l.47-.53c-.78-7.09-1.73-13.5-2.69-19.88-.28-2.34-.59-2.65-1.15-2.65-.51,0-1.23.69-2.21,2.08l-.91-1.04c2.21-4,4.27-5.82,6.56-5.82s3.16,1.61,3.56,5.3c.56,4.95,1.16,10.76,1.46,15.83,1.95-4.58,3.19-9.53,4.27-14.4,1.11-5.12,1.86-6.77,4.11-6.77,1.38,0,2.49.96,2.49,2.56s-.67,3.17-1.66,5.12c-.95,2-2.13,4.21-3.48,6.6-1.62,2.78-3.2,5.86-5.69,9.51-1.5,2.17-3.4,4.86-5.81,7.51-2.09,2.35-4.19,3.95-6.64,3.95-2.13,0-3.87-1.3-4.03-3.73Z"/><path class="cls-1" d="m214.84,35.91l.4-2.13,3.29-.43,2.48-14.34c.72-4.15,1.36-8.33,1.97-12.51l-3.23-.43.4-2.13h13.32l-.32,2.13-3.65.46-2.48,14.26-2.04,12.77h7.8l2.78-7.04h2.61l-1.86,9.38h-21.47Z"/><path class="cls-1" d="m250.46,28.97l2.32-12.08-3.11-.68.28-1.52,9.01-2.69.67.65-3.24,16.72c-.16.91-.28,1.65-.28,2.13,0,.65.28.91.67.91.71,0,1.74-.91,3.16-2.87l1.15.83c-1.66,3.17-4.35,6.3-7.95,6.3-2.02,0-3.32-1.13-3.32-3.13,0-1.26.4-3.17.63-4.56Zm4.31-24.62c0-2.39,1.74-4.04,3.68-4.04,1.78,0,3.04,1.39,3.04,3.21,0,2.39-1.7,4.08-3.68,4.08-1.58,0-3.04-1.26-3.04-3.26Z"/><path class="cls-1" d="m271.38,13.2l3.3-.49c1.39-8.43,5.56-12.71,10.7-12.71,2.65,0,5.22,1.48,5.69,3.78-.16,1.65-1.5,2.78-2.81,2.78-1.38,0-2.41-1-3.4-2.61l-1.05-1.85c-1.36,1.44-2.25,4.04-2.98,9.19l-.19,1.48h5.1l-.51,2.56-4.9-.12c-.82,6.27-1.66,12.54-2.57,18.35-.71,4.34-1.98,7.9-4.11,10.47-1.82,2.26-4.31,3.56-6.64,3.56-2.85,0-4.43-1.04-5.06-3.3.24-1.56,1.19-2.65,2.65-2.65,1.54,0,2.53,1,3.56,2.61l.59.99c.52-.79.99-1.74,1.38-2.94.87-2.43,1.34-5.34,1.82-8.51.89-6.12,1.64-12.39,2.42-18.67h-3.33l.36-1.91Z"/><path class="cls-1" d="m292.42,27.71c0-8.16,5.53-15.68,12.85-15.68,3.72,0,5.85,1.95,5.85,4.95,0,4.01-4.04,7.48-12.7,9.87.23,3.37,1.98,4.98,4.48,4.98s4.43-1.52,5.77-3.39l1.07.83c-1.82,3.91-5.06,7.38-9.77,7.38-4.43,0-7.55-3.3-7.55-8.95Zm13.72-11.07c0-1.52-.67-2.3-1.62-2.3-2.33,0-5.75,4.77-6.1,10.74,5.94-2.25,7.72-5.5,7.72-8.44Z"/><path class="cls-1" d="m341.36,6.43l-2.53-.35.43-2.13h12.65l-.39,2.13-3.5.46,1.13,20.64,8.57-20.56-3.4-.54.43-2.13h12.26l-.39,2.13-3.68.52,1.84,20.76,8.28-20.74-3.4-.54.4-2.13h8.93l-.4,2.13-3.16.55-12.14,29.42h-3.76l-2.26-23.07-9.76,23.07h-3.76l-2.41-29.61Z"/><path class="cls-1" d="m385.64,28.97l2.32-12.08-3.11-.68.28-1.52,9.01-2.69.67.65-3.24,16.72c-.16.91-.28,1.65-.28,2.13,0,.65.28.91.67.91.71,0,1.74-.91,3.16-2.87l1.15.83c-1.66,3.17-4.35,6.3-7.95,6.3-2.02,0-3.32-1.13-3.32-3.13,0-1.26.4-3.17.63-4.56Zm4.31-24.62c0-2.39,1.74-4.04,3.68-4.04,1.78,0,3.04,1.39,3.04,3.21,0,2.39-1.7,4.08-3.68,4.08-1.58,0-3.04-1.26-3.04-3.26Z"/><path class="cls-1" d="m406.52,33.44c0-1.3.36-3.08.63-4.65l2.7-13.68h-3.33l.32-1.91,3.89-.56,3.38-6.74h3.4l-1.29,6.86h4.58l-.47,2.56-4.57-.09-2.67,14.12c-.16.96-.32,1.65-.32,2.13,0,.65.36.91.75.91.75,0,1.74-.91,3.16-2.87l1.15.83c-1.66,3.17-4.39,6.3-8.03,6.3-1.98,0-3.28-1.13-3.28-3.21Z"/><path class="cls-1" d="m440.12,33.61c0-1.35.4-2.95.71-4.34l1.62-7.47c.36-1.43.63-2.87.63-3.65,0-1-.47-1.43-1.19-1.43-1.28,0-3.01.9-5.05,2.93l-1.2,5.97c-.75,3.87-1.3,6.82-1.7,10.29l-5.61.39-.63-.52,4.03-21.06c.61-3.06,1.21-6.12,1.62-9.18l-2.88-.54.16-1.56,9.05-2.69.55.61-3.06,16.04c2.98-3.31,6.07-5.36,8.88-5.36,1.9,0,3.32,1.3,3.32,4,0,1.35-.24,2.78-.55,4.26l-2.02,9.08c-.2.96-.36,1.69-.36,2.13,0,.65.28.91.67.91.71,0,1.82-.91,3.2-2.87l1.19.83c-1.66,3.17-4.51,6.3-8.14,6.3-2.02,0-3.24-1.13-3.24-3.04Z"/><path class="cls-1" d="m493.44,20.76h-4.96l-2.06,12.85h8.56l2.42-6.3h2.77l-1.78,8.6h-22.1l.4-2.13,3.29-.43,2.48-14.34c.72-4.15,1.36-8.33,1.97-12.51l-3.23-.43.4-2.13h20.79l-1.07,8.42h-2.73l-.35-6.12h-7.24l-2.1,12.07h4.9l1.55-4.17h1.94l-1.78,10.64h-1.98l-.1-4.04Z"/><path class="cls-1" d="m512.12,30.09c1.33,0,2.24.81,3.25,2.9l.19-.25c1.45-2.05,2.86-4.16,4.29-6.38l-2.2-7.48c-.51-1.61-.91-2.08-1.7-2.08-.67,0-1.58.52-2.57,2.08l-.91-.96c1.94-3.6,3.91-5.91,6.37-5.91s3.24,1.52,4.15,4.43l1.26,4.2c1.38-2.57,2.63-4.59,3.48-5.89,1.3-1.91,2.53-2.74,4.19-2.74s3.08.96,3.52,3.17c-.12,1.95-1.3,3.3-2.81,3.3-1.34,0-2.33-.83-3.12-2.39l-.17-.3-.18.26c-1.46,2.11-2.88,4.27-4.3,6.5l2.36,7.83c.47,1.52.87,2,1.58,2,.87,0,1.94-1.17,3.2-3.04l1.19.83c-1.78,3.69-4.15,6.56-7.12,6.56-2.06,0-3.44-.96-4.31-4.04l-1.32-4.49c-1.27,2.38-2.37,4.3-3.51,5.92-1.07,1.61-2.17,2.52-3.91,2.52s-3.64-1.13-3.88-3.87c.44-1.82,1.54-2.69,2.97-2.69Z"/><path class="cls-1" d="m549.28,47.25l.28-1.65,3.31-.59,2.52-13.26c-2.25,2.8-5.15,4.9-7.77,4.9-2.41,0-4.59-1.78-4.59-6.69,0-8.16,8.03-17.94,14.55-17.94,1.33,0,2.54.42,3.6,1.3l3.08-1.64.71.65-4.74,24.93c-.52,2.72-.95,5.29-1.35,7.8l3.05.54-.28,1.65h-12.38Zm8.97-31.04c-.74-.53-1.5-.84-2.29-.84-1.34,0-2.65.96-3.52,2-2.1,2.48-3.28,7.3-3.28,10.55,0,2.78.75,4.08,2.29,4.08,1.21,0,2.69-.86,4.26-2.58l2.54-13.21Z"/><path class="cls-1" d="m587.56,32.66l.09-1.06c-2.81,3.21-5.65,5.06-8.31,5.06-2.09,0-3.68-1.43-3.68-4,0-1.43.32-3,.59-4.56l2.34-11.27-3.17-.63.28-1.52,9.01-2.69.71.69-2.93,14.07c-.28,1.35-.51,2.56-.51,3.47,0,1.26.55,1.74,1.42,1.74,1.23,0,2.67-.75,4.56-2.55l1.48-7.75c.55-2.65.95-5.08,1.3-7.73l5.77-1.95.75.69-3.32,16.72c-.16.91-.28,1.61-.28,2.08,0,.65.28.91.75.91.75,0,1.66-.91,3.08-2.87l1.19.83c-1.66,3.13-4.27,6.3-7.83,6.3-1.9,0-3.32-1.48-3.32-4Z"/><path class="cls-1" d="m609.66,28.97l2.32-12.08-3.11-.68.28-1.52,9.01-2.69.67.65-3.24,16.72c-.16.91-.28,1.65-.28,2.13,0,.65.28.91.67.91.71,0,1.74-.91,3.16-2.87l1.15.83c-1.66,3.17-4.35,6.3-7.95,6.3-2.02,0-3.32-1.13-3.32-3.13,0-1.26.4-3.17.63-4.56Zm4.31-24.62c0-2.39,1.74-4.04,3.68-4.04,1.78,0,3.04,1.39,3.04,3.21,0,2.39-1.7,4.08-3.68,4.08-1.58,0-3.04-1.26-3.04-3.26Z"/><path class="cls-1" d="m629.03,31.61c.24-1.48,1.07-2.43,2.41-2.43,1.5,0,2.53.83,3,3l.66,2.69h.25c2.17,0,3.48-1.47,3.48-3.38,0-1.65-1.11-2.95-3.2-4.82-2.21-2.04-3.83-3.87-3.83-6.99,0-4.08,2.81-7.64,8.03-7.64,3.91,0,5.81,1.91,6.37,4.73-.16,1.35-.95,2.21-2.37,2.21-1.19,0-2.29-.87-3-2.91l-.76-2.19c-2,.2-2.87,1.86-2.87,3.41,0,2,1.34,3.39,3.48,5.3,2.45,2.21,3.83,3.95,3.83,6.82,0,3.91-2.97,7.25-9.01,7.25-3.64,0-6.01-1.82-6.44-5.04Z"/><path class="cls-1" d="m657.3,28.97l2.32-12.08-3.11-.68.28-1.52,9.01-2.69.67.65-3.24,16.72c-.16.91-.28,1.65-.28,2.13,0,.65.28.91.67.91.71,0,1.74-.91,3.16-2.87l1.15.83c-1.66,3.17-4.35,6.3-7.95,6.3-2.02,0-3.32-1.13-3.32-3.13,0-1.26.4-3.17.63-4.56Zm4.31-24.62c0-2.39,1.74-4.04,3.68-4.04,1.78,0,3.04,1.39,3.04,3.21,0,2.39-1.7,4.08-3.68,4.08-1.58,0-3.04-1.26-3.04-3.26Z"/><path class="cls-1" d="m678.17,33.44c0-1.3.36-3.08.63-4.65l2.7-13.68h-3.33l.32-1.91,3.89-.56,3.38-6.74h3.4l-1.29,6.86h4.58l-.47,2.56-4.57-.09-2.67,14.12c-.16.96-.32,1.65-.32,2.13,0,.65.36.91.75.91.75,0,1.74-.91,3.16-2.87l1.15.83c-1.66,3.17-4.39,6.3-8.03,6.3-1.98,0-3.28-1.13-3.28-3.21Z"/><path class="cls-1" d="m699.96,27.71c0-8.16,5.53-15.68,12.85-15.68,3.72,0,5.85,1.95,5.85,4.95,0,4.01-4.04,7.48-12.7,9.87.23,3.37,1.98,4.98,4.48,4.98s4.43-1.52,5.77-3.39l1.07.83c-1.82,3.91-5.06,7.38-9.77,7.38-4.43,0-7.55-3.3-7.55-8.95Zm13.72-11.07c0-1.52-.67-2.3-1.62-2.3-2.33,0-5.75,4.77-6.1,10.74,5.94-2.25,7.72-5.5,7.72-8.44Z"/><path class="cls-1" d="m745.43,23.49c0-10.94,6.68-20.41,16.96-20.41,3.04,0,5.61.69,8.14,2.35l-.99,7.51h-2.65l-.62-6.6c-1.04-.62-2.13-.91-3.37-.91-6.48,0-10.87,9.25-10.87,18.5,0,6.38,2.65,10.51,7.24,10.51,1.09,0,2.12-.2,3.14-.58l2.67-7.1h2.69l-1.15,7.77c-2.21,1.3-4.86,2.26-8.38,2.26-7.55,0-12.81-4.78-12.81-13.29Z"/><path class="cls-1" d="m782.96,16.8l-3.09-.61.28-1.52,8.38-2.69.75.69-1.15,7.1c1.97-4.52,4.48-7.75,7.2-7.75,1.42,0,2.73.78,3.28,2.43-.04,2.17-1.11,3.91-3,3.91-1.35,0-2.16-.7-3.33-2.11-2.18,2.57-3.56,5.28-4.75,8.15l-.22,1.26c-.59,3.39-1.23,6.77-1.7,10.25l-5.65.39-.59-.52,3.61-18.98Z"/><path class="cls-1" d="m816.47,32.53c0-.33.02-.64.08-1.03-2.22,2.88-4.93,5.16-7.55,5.16-2.41,0-4.67-1.78-4.67-6.56,0-8.29,8.1-18.07,14.51-18.07,1.37,0,2.62.54,3.65,1.5l2.96-1.64.75.56-3.44,17.02c-.16.87-.32,1.52-.32,2,0,.65.28.91.75.91.79,0,1.82-1,3.16-2.91l1.15.87c-1.5,3-4.31,6.3-7.55,6.3-2.02,0-3.44-1.52-3.48-4.13Zm2.89-16.43c-.68-.44-1.42-.73-2.18-.73-1.11,0-2.25.69-3.32,1.95-2.06,2.35-3.36,7.25-3.36,10.64,0,2.78.75,4.04,2.25,4.04,1.14,0,2.46-.85,4.03-2.57l2.58-13.34Z"/><path class="cls-1" d="m850.47,33.44c0-1.3.36-3.08.63-4.65l2.66-13.68h-6.98c-.85,6.3-1.64,12.6-2.56,18.46-.71,4.34-1.98,7.9-4.11,10.47-1.82,2.26-4.31,3.56-6.64,3.56-2.85,0-4.43-1.04-5.06-3.3.24-1.56,1.19-2.65,2.65-2.65,1.54,0,2.53,1,3.56,2.61l.59.99c.52-.79.99-1.74,1.38-2.94.87-2.43,1.34-5.34,1.82-8.51.89-6.12,1.61-12.39,2.41-18.67h-3.32l.36-1.91,3.3-.49c1.39-8.12,5.48-12.71,10.61-12.71,2.57,0,4.63,1.39,5.1,3.52-.2,1.48-1.07,2.43-2.25,2.43-1.46,0-2.41-.83-3.36-2.39l-.79-1.43c-1.4,1.47-2.4,4.01-3.16,9.16l-.21,1.48h6.71l.83-.12,3.38-6.74h3.44l-1.3,6.86h4.54l-.47,2.56-4.53-.09-2.67,14.12c-.2.96-.32,1.65-.32,2.13,0,.65.36.91.75.91.75,0,1.7-.91,3.12-2.87l1.15.83c-1.62,3.17-4.35,6.3-7.99,6.3-2.02,0-3.28-1.13-3.28-3.21Z"/><path class="cls-1" d="m871.51,31.61c.24-1.48,1.07-2.43,2.41-2.43,1.5,0,2.53.83,3,3l.66,2.69h.25c2.17,0,3.48-1.47,3.48-3.38,0-1.65-1.11-2.95-3.2-4.82-2.21-2.04-3.83-3.87-3.83-6.99,0-4.08,2.81-7.64,8.03-7.64,3.91,0,5.81,1.91,6.37,4.73-.16,1.35-.95,2.21-2.37,2.21-1.19,0-2.29-.87-3-2.91l-.76-2.19c-2,.2-2.87,1.86-2.87,3.41,0,2,1.34,3.39,3.48,5.3,2.45,2.21,3.83,3.95,3.83,6.82,0,3.91-2.97,7.25-9.01,7.25-3.64,0-6.01-1.82-6.44-5.04Z"/></g></g></svg>