<?xml version="1.0" encoding="UTF-8"?><svg id="_圖層_2" xmlns="http://www.w3.org/2000/svg" viewBox="0 0 285 170"><defs><style>.cls-1{fill:none;}.cls-2{fill:#434659;}</style></defs><g id="_按鈕"><rect class="cls-1" width="285" height="170"/><path class="cls-2" d="m67.32,138.02c-.11-.04-.2-.1-.37-.19,1.71-.73,3.11-1.75,4.2-3.17,1.87-2.42,2.39-5.17,2.02-8.15-.5-4.13-2.47-7.26-6.23-9.18-2.36-1.2-4.9-1.69-7.52-1.69-7.29-.02-14.58-.01-21.88-.02-.14,0-.28.01-.46.02v46.36c.19,0,.33.02.47.02,7.68,0,15.37.01,23.05,0,3.59,0,6.88-.99,9.73-3.21,3.82-2.99,5.46-6.93,4.76-11.74-.68-4.61-3.51-7.47-7.77-9.06Zm-18.91-12.76h1.19c2.49,0,4.98,0,7.47,0,2.27,0,4.1,1.67,4.21,3.83.13,2.49-1.52,4.62-3.87,4.71-2.94.12-5.89.05-8.83.06-.06,0-.11-.04-.18-.06v-8.54Zm14.22,24.18c-.54,1.51-1.73,2.25-3.21,2.6-.68.16-1.38.25-2.08.26-2.78.03-5.56.01-8.34.01-.14,0-.28-.02-.45-.04v-8.97c3.31,0,6.54-.01,9.76.01.44,0,.9.14,1.33.26,2.69.79,3.93,3.23,2.99,5.87Z"/><path class="cls-2" d="m235.71,132.65h-14.1v-17h-12.15v46.31h12.18v-18.22h14.13v18.21h12.15v-46.27h-12.2v16.97Z"/><path class="cls-2" d="m111.92,117.72c-4.4-2.88-9.27-3.7-14.42-3.07-6.65.81-11.62,4.2-14.97,9.97-2.04,3.51-3.05,7.34-3.36,11.37-.36,4.63.09,9.16,1.77,13.52,1.8,4.68,4.7,8.47,9.13,10.95,4.13,2.31,8.6,2.96,13.25,2.37,6.57-.82,11.52-4.15,14.85-9.84,2.57-4.4,3.5-9.22,3.55-13.98-.02-3.83-.51-7.32-1.74-10.67-1.6-4.36-4.14-8.03-8.08-10.61Zm-3.18,28.82c-2.45,5.06-8.32,6.95-12.96,4.18-1.86-1.11-3.13-2.74-3.9-4.72-1.85-4.8-1.89-9.65-.02-14.44,1.14-2.91,3.18-4.95,6.33-5.71,3.88-.93,7.66.56,9.82,3.9,1.38,2.12,1.99,4.49,2.22,6.98.07.7.08,1.4.11,1.83-.05,2.94-.43,5.55-1.61,7.98Z"/><path class="cls-2" d="m153.03,135.65c-2.9-1.16-5.99-1.61-9-2.38-1.46-.37-2.95-.81-4.29-1.48-2.95-1.49-2.25-5.07,0-6.35,1.01-.57,2.09-.89,3.24-.91,3.69-.07,6.84,1.23,9.47,3.79.16.15.23.39.38.65,2.53-2.6,4.86-5,7.28-7.49-.9-.81-1.82-1.74-2.85-2.55-3.68-2.9-7.92-4.29-12.57-4.52-3.56-.18-7.03.25-10.31,1.73-8.49,3.8-9.7,12.33-7.43,18.07,1.46,3.68,4.33,5.98,7.93,7.31,2.38.88,4.91,1.34,7.36,2.04,1.69.49,3.42.93,5.02,1.64,1.68.74,2.28,2.34,1.83,4.14-.49,1.96-1.94,2.92-3.76,3.32-3.46.76-6.7.05-9.73-1.71-1.73-1.01-3.15-2.37-4.43-3.96-2.41,2.49-4.8,4.95-7.23,7.45-.04-.05.04.05.11.14,3.55,4.24,7.96,7.02,13.48,7.92,4.28.7,8.55.75,12.69-.7,6.02-2.11,10.1-5.95,10.76-12.62.27-2.69,0-5.35-1.24-7.82-1.42-2.86-3.84-4.55-6.71-5.7Z"/><path class="cls-2" d="m194.05,148.62c-1.03,1.3-2.27,2.31-3.87,2.85-4.45,1.49-9.26-.47-11.67-4.8-1.13-2.03-1.66-4.24-1.83-6.54-.22-3,.09-5.92,1.41-8.66,2.08-4.31,5.98-6.41,10.58-5.7,2.54.4,4.39,1.85,5.81,3.92.24.35.47.7.72,1.08,3.12-2.07,6.19-4.1,9.33-6.18-.29-.42-.53-.77-.78-1.12-2.4-3.34-5.31-6.07-9.21-7.58-3.66-1.41-7.46-1.65-11.31-1.12-6.5.89-11.44,4.16-14.76,9.81-2.14,3.64-3.14,7.62-3.4,11.8-.32,5.14.4,10.1,2.66,14.77,2.46,5.08,6.23,8.79,11.6,10.75,3.3,1.2,6.71,1.32,10.17,1.07,6.94-.49,11.66-4.33,15.28-9.96-3.12-2.09-6.23-4.19-9.36-6.28-.49.67-.91,1.3-1.38,1.9Z"/><path class="cls-2" d="m172.88,22.02c-10.3-11.56-23.35-16.46-38.74-14.77-8.31.91-15.75,4.16-22.23,9.46-8.6,7.04-13.87,16.04-15.74,27-.26,1.52-.4,3.05-.6,4.58v5.25c.05.25.1.5.14.75.34,2.21.52,4.46,1.04,6.63,5.66,23.51,28.56,37.96,52.22,32.98,19.73-4.15,34.35-21.69,34.76-41.81.24-11.39-3.26-21.55-10.85-30.06Zm-33.38,68.76c-22.03-.09-39.85-17.98-39.8-39.96.05-22.13,17.96-39.89,40.15-39.82,22.02.07,39.85,17.99,39.77,39.97-.08,22.08-18.04,39.89-40.12,39.8Z"/><path class="cls-2" d="m159.36,24.43c-1.43-1.13-2.89-1.05-4.54-.98v14.96h-30.27v-15.01c-.72,0-1.36.04-1.99-.01-.76-.06-1.38.14-2,.6-10.14,7.63-14.89,17.75-13.69,30.39.91,9.6,5.58,17.22,13.23,23.09,1.43,1.09,2.85.84,4.48.88v-15h30.24v15.04c.66,0,1.2-.05,1.73.01.94.11,1.67-.23,2.41-.78,8.09-6.01,12.82-14.01,13.56-24.03.89-12-3.69-21.71-13.16-29.18Zm-39.06,47.82c-11.85-9.77-13.77-30.54,0-42.82v42.82Zm34.49-13.18h-30.2v-16.44h30.2v16.44Zm4.22,13.16V29.52c11.93,10.2,13.42,30.59,0,42.71Z"/></g></svg>