<?xml version="1.0" encoding="UTF-8"?><svg id="_圖層_2" xmlns="http://www.w3.org/2000/svg" xmlns:xlink="http://www.w3.org/1999/xlink" viewBox="0 0 21.97 20.04"><defs><style>.cls-1{fill:#fff;}.cls-2{filter:url(#drop-shadow-1);}</style><filter id="drop-shadow-1" filterUnits="userSpaceOnUse"><feOffset dx="0" dy="0"/><feGaussianBlur result="blur" stdDeviation="2"/><feFlood flood-color="#060001" flood-opacity=".5"/><feComposite in2="blur" operator="in"/><feComposite in="SourceGraphic"/></filter></defs><g id="_按鈕"><g class="cls-2"><path class="cls-1" d="m0,10.02c.18-.21.34-.43.53-.62,1.37-1.32,2.75-2.64,4.13-3.95,1.05-1.01,2.11-2.01,3.17-3.01.7-.67,1.39-1.34,2.1-2.01.62-.58,1.5-.58,2.12,0,1.07,1.01,2.13,2.03,3.19,3.05.02.02.05.04.1.08,0-.1.01-.16.01-.23,0-.88,0-1.76,0-2.63,0-.5.13-.65.56-.65.79,0,1.58,0,2.37,0,.4,0,.55.17.55.63,0,2,0,4.01,0,6.01,0,.16.05.27.15.38.9.85,1.8,1.7,2.7,2.56.11.11.2.26.29.39v.28c-.29.4-.57.81-.86,1.21-.25.35-.47.38-.78.09-.82-.78-1.63-1.56-2.45-2.34-.72-.69-1.44-1.37-2.15-2.06-.74-.71-1.48-1.41-2.22-2.12-.8-.76-1.6-1.53-2.39-2.29-.09-.09-.16-.09-.25,0-.73.7-1.46,1.4-2.19,2.1-.73.7-1.45,1.39-2.18,2.08-.73.7-1.46,1.4-2.19,2.1-.82.78-1.63,1.56-2.45,2.34-.09.09-.19.18-.29.27-.23.19-.44.17-.62-.07-.32-.42-.62-.86-.93-1.3v-.28Z"/><path class="cls-1" d="m12.73,20.02v-5.97c-.08,0-.13,0-.19,0-1.04,0-2.07,0-3.11,0-.15,0-.2.05-.2.22,0,1.83,0,3.66,0,5.49v.28h-.21c-1.64,0-3.28,0-4.91,0-.63,0-.98-.39-.98-1.12,0-2.41,0-4.81,0-7.22,0-.18.06-.29.18-.4,1.21-1.14,2.42-2.28,3.62-3.42,1.06-1,2.13-2.01,3.19-3.01.28-.27.56-.54.85-.81.43.41.85.8,1.27,1.19,1.22,1.15,2.44,2.31,3.66,3.46.94.89,1.88,1.77,2.81,2.66.06.06.1.17.1.25,0,2.47,0,4.94,0,7.4,0,.59-.36,1.01-.87,1.01-1.71,0-3.42,0-5.12,0-.02,0-.05,0-.1-.02Z"/></g></g></svg>