<?xml version="1.0" encoding="UTF-8"?><svg id="_圖層_2" xmlns="http://www.w3.org/2000/svg" xmlns:xlink="http://www.w3.org/1999/xlink" viewBox="0 0 21 21"><defs><style>.cls-1{fill:none;}.cls-2{fill:#fff;filter:url(#drop-shadow-1);}</style><filter id="drop-shadow-1" filterUnits="userSpaceOnUse"><feOffset dx="0" dy="0"/><feGaussianBlur result="blur" stdDeviation="2"/><feFlood flood-color="#060001" flood-opacity=".5"/><feComposite in2="blur" operator="in"/><feComposite in="SourceGraphic"/></filter></defs><g id="_字_按鈕"><rect class="cls-1" width="21" height="21"/><path class="cls-2" d="m10.5.11C5.56.11,1.56,4.11,1.56,9.05c0,3.35,4.12,8.16,6.76,10.91,1.19,1.24,3.17,1.24,4.36,0,2.65-2.75,6.76-7.56,6.76-10.91C19.44,4.11,15.44.11,10.5.11Zm1.46,14.82c-4.67,1.03-8.74-3.03-7.7-7.7.52-2.35,2.42-4.25,4.77-4.77,4.67-1.03,8.74,3.03,7.7,7.7-.52,2.35-2.42,4.25-4.77,4.77Z"/></g></svg>