<?xml version="1.0" encoding="UTF-8"?><svg id="_圖層_2" xmlns="http://www.w3.org/2000/svg" xmlns:xlink="http://www.w3.org/1999/xlink" viewBox="0 0 21 21"><defs><style>.cls-1{fill:none;}.cls-2{fill:#fff;}.cls-3{filter:url(#drop-shadow-1);}</style><filter id="drop-shadow-1" filterUnits="userSpaceOnUse"><feOffset dx="0" dy="0"/><feGaussianBlur result="blur" stdDeviation="2"/><feFlood flood-color="#060001" flood-opacity=".5"/><feComposite in2="blur" operator="in"/><feComposite in="SourceGraphic"/></filter></defs><g id="_字_按鈕"><rect class="cls-1" width="21" height="21"/><g class="cls-3"><path class="cls-2" d="m8.46,18.93l7.52.03c.56,0,1.1-.21,1.49-.61.26-.27.46-.63.41-1.08l.04-8.18s-.94-2.31-2.64-.02l-.09.1s.34-1.43-.26-1.85c0,0-1.19-1.48-2.44.46,0,0,.3-2.07-.84-2.28,0,0-1.12-.54-1.87,1.01,0,0,.11-3.62,0-3.94C9.77,2.58,10.09-.02,8.55,0c0,0-1.97-.35-1.38,3.72l-.03,6.29s.04,1.25-.81.6l-1.27-2.24s-1.01-.53-1.63-.1c-.62.43-.24,1.27-.14,1.54,0,0,2.73,6.11,3.88,8.33.25.48.74.78,1.29.79Z"/><rect class="cls-2" x="8.07" y="18.48" width="8.55" height="2.52" rx=".74" ry=".74"/></g></g></svg>