<?xml version="1.0" encoding="UTF-8"?><svg id="_圖層_2" xmlns="http://www.w3.org/2000/svg" xmlns:xlink="http://www.w3.org/1999/xlink" viewBox="0 0 21 21"><defs><style>.cls-1{fill:none;}.cls-2{fill:#fff;}.cls-3{filter:url(#drop-shadow-1);}</style><filter id="drop-shadow-1" filterUnits="userSpaceOnUse"><feOffset dx="0" dy="0"/><feGaussianBlur result="blur" stdDeviation="2"/><feFlood flood-color="#060001" flood-opacity=".5"/><feComposite in2="blur" operator="in"/><feComposite in="SourceGraphic"/></filter></defs><g id="_字_按鈕"><rect class="cls-1" width="21" height="21"/><g class="cls-3"><path class="cls-2" d="m8.74.92c.4.35.44.81.37,1.29-.13.96-.27,1.91-.41,2.87-.02.14-.07.29-.12.42-.15.43-.46.64-.91.63-.32,0-.63-.01-.95-.03-.31-.02-.53.11-.69.35-.22.32-.34.68-.35,1.07-.07,2.25.49,4.34,1.57,6.29.22.4.5.77.78,1.12.18.23.45.36.74.44.2.05.4.03.58-.1.24-.17.49-.33.73-.5.49-.34.91-.32,1.34.09.24.22.44.48.66.73.4.47.8.93,1.2,1.4.1.12.2.25.29.37.25.35.42.73.3,1.17l-.17.32c-.21.21-.4.44-.62.64-1,.85-2.14,1.17-3.44.89-.26-.06-.51-.16-.76-.24-.18-.1-.36-.2-.55-.3-.2-.16-.41-.31-.61-.47-.98-.83-1.67-1.87-2.27-3-.71-1.34-1.23-2.76-1.66-4.22-.53-1.78-.94-3.58-1.02-5.45-.05-1.04,0-2.06.3-3.06.08-.29.2-.58.3-.86.1-.18.2-.36.3-.55.03-.04.07-.07.1-.11.91-1.27,2.15-1.77,3.68-1.62.33.03.65.15.98.22l.32.17Z"/><path class="cls-2" d="m15.16,14.88s-.09-.02-.13-.04c-.48-.15-.65-.75-.31-1.13.21-.23.42-.46.61-.7.68-.87,1.13-1.86,1.36-2.94.12-.6.17-1.2.14-1.81-.09-1.59-.64-3.01-1.66-4.24-.14-.17-.31-.33-.46-.5-.31-.36-.19-.92.25-1.1.06-.03.13-.04.2-.06h.16s.03.01.04.01c.14.03.27.09.37.19.72.72,1.3,1.55,1.72,2.48.44.96.69,1.96.76,3.01,0,.1.02.19.02.29v.55s-.01.05-.01.08c-.02.52-.08,1.02-.2,1.53-.37,1.6-1.12,2.98-2.27,4.15-.11.11-.25.19-.41.22-.01,0-.02,0-.03.01h-.16Z"/><path class="cls-2" d="m15.77,8.51c-.03,1.87-.64,3.38-1.87,4.63-.2.2-.43.27-.7.19-.26-.08-.43-.25-.49-.52-.06-.25.02-.47.2-.65.22-.22.42-.46.59-.72.41-.6.67-1.27.79-1.98.07-.44.09-.87.05-1.31-.12-1.16-.58-2.16-1.38-3.01-.11-.12-.21-.24-.25-.4-.07-.3.06-.61.33-.76.26-.15.6-.12.82.09.37.35.68.75.95,1.19.46.75.76,1.56.88,2.44.04.31.06.62.07.82Z"/><path class="cls-2" d="m13.23,8.72c-.02.98-.39,1.9-1.14,2.67-.27.28-.71.29-.98.02-.27-.26-.29-.7-.02-.98.35-.36.6-.78.69-1.28.17-.85-.04-1.6-.62-2.25-.11-.12-.21-.24-.25-.4-.07-.29.06-.6.32-.76.26-.16.6-.13.82.08.29.28.53.6.72.96.3.57.45,1.19.45,1.92Z"/></g></g></svg>